%TF.GenerationSoftware,KiCad,Pcbnew,(6.0.1)*%
%TF.CreationDate,2022-04-24T10:59:57-04:00*%
%TF.ProjectId,UV-Sensor,55562d53-656e-4736-9f72-2e6b69636164,rev?*%
%TF.SameCoordinates,Original*%
%TF.FileFunction,Copper,L1,Top*%
%TF.FilePolarity,Positive*%
%FSLAX46Y46*%
G04 Gerber Fmt 4.6, Leading zero omitted, Abs format (unit mm)*
G04 Created by KiCad (PCBNEW (6.0.1)) date 2022-04-24 10:59:57*
%MOMM*%
%LPD*%
G01*
G04 APERTURE LIST*
G04 Aperture macros list*
%AMRoundRect*
0 Rectangle with rounded corners*
0 $1 Rounding radius*
0 $2 $3 $4 $5 $6 $7 $8 $9 X,Y pos of 4 corners*
0 Add a 4 corners polygon primitive as box body*
4,1,4,$2,$3,$4,$5,$6,$7,$8,$9,$2,$3,0*
0 Add four circle primitives for the rounded corners*
1,1,$1+$1,$2,$3*
1,1,$1+$1,$4,$5*
1,1,$1+$1,$6,$7*
1,1,$1+$1,$8,$9*
0 Add four rect primitives between the rounded corners*
20,1,$1+$1,$2,$3,$4,$5,0*
20,1,$1+$1,$4,$5,$6,$7,0*
20,1,$1+$1,$6,$7,$8,$9,0*
20,1,$1+$1,$8,$9,$2,$3,0*%
G04 Aperture macros list end*
%TA.AperFunction,Profile*%
%ADD10C,0.050000*%
%TD*%
%TA.AperFunction,SMDPad,CuDef*%
%ADD11R,0.254800X0.706399*%
%TD*%
%TA.AperFunction,SMDPad,CuDef*%
%ADD12R,0.706399X0.254800*%
%TD*%
%TA.AperFunction,SMDPad,CuDef*%
%ADD13RoundRect,0.237500X0.237500X-0.250000X0.237500X0.250000X-0.237500X0.250000X-0.237500X-0.250000X0*%
%TD*%
%TA.AperFunction,ViaPad*%
%ADD14C,0.800000*%
%TD*%
%TA.AperFunction,Conductor*%
%ADD15C,0.152400*%
%TD*%
%TA.AperFunction,Conductor*%
%ADD16C,0.300000*%
%TD*%
%TA.AperFunction,Conductor*%
%ADD17C,0.200000*%
%TD*%
G04 APERTURE END LIST*
D10*
X141287500Y-104587100D02*
X141287500Y-100650100D01*
X155714700Y-100142100D02*
X155714700Y-106746100D01*
X155714700Y-100142100D02*
G75*
G03*
X155333700Y-99761100I-380999J1D01*
G01*
X145351500Y-106111100D02*
G75*
G03*
X144716500Y-105476100I-634999J1D01*
G01*
X141287500Y-104587100D02*
G75*
G03*
X142176500Y-105476100I889000J0D01*
G01*
X150736300Y-106746100D02*
G75*
G03*
X150101300Y-106111100I-634999J1D01*
G01*
X150101300Y-106111100D02*
X145351500Y-106111100D01*
X142176500Y-99761100D02*
X155333700Y-99761100D01*
X142176500Y-99761100D02*
G75*
G03*
X141287500Y-100650100I0J-889000D01*
G01*
X144716500Y-105476100D02*
X142176500Y-105476100D01*
X155714700Y-106746100D02*
X155714700Y-110096100D01*
X150886300Y-110246100D02*
X155564700Y-110246100D01*
X150736300Y-106746100D02*
X150736300Y-110096100D01*
X155564700Y-110246100D02*
G75*
G03*
X155714700Y-110096100I0J150000D01*
G01*
X150736300Y-110096100D02*
G75*
G03*
X150886300Y-110246100I150000J0D01*
G01*
D11*
X144499999Y-103450100D03*
X145000000Y-103450100D03*
X145500000Y-103450100D03*
X146000001Y-103450100D03*
D12*
X146200100Y-102500000D03*
D11*
X146000001Y-101549900D03*
X145500000Y-101549900D03*
X145000000Y-101549900D03*
X144499999Y-101549900D03*
D12*
X144299900Y-102500000D03*
D13*
X142750000Y-103412500D03*
X142750000Y-101587500D03*
D14*
X154200000Y-104500000D03*
X142900000Y-104400000D03*
X148500000Y-101900000D03*
X144300000Y-100700000D03*
X144803034Y-104697825D03*
X153400000Y-105600000D03*
X151400000Y-105500000D03*
D15*
X143306989Y-102855511D02*
X142750000Y-103412500D01*
X145411010Y-102855511D02*
X143306989Y-102855511D01*
X145500000Y-102944501D02*
X145411010Y-102855511D01*
X145500000Y-103450100D02*
X145500000Y-102944501D01*
D16*
X150594790Y-100894790D02*
X145070689Y-100894790D01*
X154200000Y-104500000D02*
X150594790Y-100894790D01*
X145070689Y-100894790D02*
X145000000Y-100965479D01*
X145000000Y-100965479D02*
X145000000Y-101549900D01*
X142750000Y-104250000D02*
X142900000Y-104400000D01*
X142750000Y-103412500D02*
X142750000Y-104250000D01*
X146000001Y-101549900D02*
X145500000Y-101549900D01*
X148500000Y-101900000D02*
X146350101Y-101900000D01*
X146350101Y-101900000D02*
X146000001Y-101549900D01*
X144499999Y-100899999D02*
X144300000Y-100700000D01*
X144499999Y-101549900D02*
X144499999Y-100899999D01*
X144462399Y-101587500D02*
X144499999Y-101549900D01*
X142750000Y-101587500D02*
X144462399Y-101587500D01*
D17*
X144499999Y-104394790D02*
X144499999Y-103450100D01*
X144803034Y-104697825D02*
X144499999Y-104394790D01*
X146202021Y-103248080D02*
X146000001Y-103450100D01*
X153400000Y-105600000D02*
X151048080Y-103248080D01*
X151048080Y-103248080D02*
X146202021Y-103248080D01*
X146565479Y-105500000D02*
X145000000Y-103934521D01*
X151400000Y-105500000D02*
X146565479Y-105500000D01*
X145000000Y-103934521D02*
X145000000Y-103450100D01*
M02*
