%TF.GenerationSoftware,KiCad,Pcbnew,(6.0.1)*%
%TF.CreationDate,2022-04-24T10:59:57-04:00*%
%TF.ProjectId,UV-Sensor,55562d53-656e-4736-9f72-2e6b69636164,rev?*%
%TF.SameCoordinates,Original*%
%TF.FileFunction,Copper,L4,Bot*%
%TF.FilePolarity,Positive*%
%FSLAX46Y46*%
G04 Gerber Fmt 4.6, Leading zero omitted, Abs format (unit mm)*
G04 Created by KiCad (PCBNEW (6.0.1)) date 2022-04-24 10:59:57*
%MOMM*%
%LPD*%
G01*
G04 APERTURE LIST*
%TA.AperFunction,Profile*%
%ADD10C,0.050000*%
%TD*%
%TA.AperFunction,SMDPad,CuDef*%
%ADD11R,0.347000X2.500000*%
%TD*%
%TA.AperFunction,ViaPad*%
%ADD12C,0.800000*%
%TD*%
%TA.AperFunction,Conductor*%
%ADD13C,0.300000*%
%TD*%
%TA.AperFunction,Conductor*%
%ADD14C,0.200000*%
%TD*%
G04 APERTURE END LIST*
D10*
X141287500Y-104587100D02*
X141287500Y-100650100D01*
X155714700Y-100142100D02*
X155714700Y-106746100D01*
X155714700Y-100142100D02*
G75*
G03*
X155333700Y-99761100I-380999J1D01*
G01*
X145351500Y-106111100D02*
G75*
G03*
X144716500Y-105476100I-634999J1D01*
G01*
X141287500Y-104587100D02*
G75*
G03*
X142176500Y-105476100I889000J0D01*
G01*
X150736300Y-106746100D02*
G75*
G03*
X150101300Y-106111100I-634999J1D01*
G01*
X150101300Y-106111100D02*
X145351500Y-106111100D01*
X142176500Y-99761100D02*
X155333700Y-99761100D01*
X142176500Y-99761100D02*
G75*
G03*
X141287500Y-100650100I0J-889000D01*
G01*
X144716500Y-105476100D02*
X142176500Y-105476100D01*
X155714700Y-106746100D02*
X155714700Y-110096100D01*
X150886300Y-110246100D02*
X155564700Y-110246100D01*
X150736300Y-106746100D02*
X150736300Y-110096100D01*
X155564700Y-110246100D02*
G75*
G03*
X155714700Y-110096100I0J150000D01*
G01*
X150736300Y-110096100D02*
G75*
G03*
X150886300Y-110246100I150000J0D01*
G01*
D11*
X155225500Y-108996100D03*
X154725500Y-108996100D03*
X154225500Y-108996100D03*
X153725500Y-108996100D03*
X153225500Y-108996100D03*
X152725500Y-108996100D03*
X152225500Y-108996100D03*
X151725500Y-108996100D03*
X151225500Y-108996100D03*
D12*
X154200000Y-104500000D03*
X142900000Y-104400000D03*
X148500000Y-101900000D03*
X144300000Y-100700000D03*
X144803034Y-104697825D03*
X153400000Y-105600000D03*
X151400000Y-105500000D03*
D13*
X155000000Y-104300000D02*
X155000000Y-105800000D01*
X154000000Y-103300000D02*
X155000000Y-104300000D01*
X144000000Y-103300000D02*
X154000000Y-103300000D01*
X142900000Y-104400000D02*
X144000000Y-103300000D01*
X154500000Y-104800000D02*
X154200000Y-104500000D01*
X154500000Y-107220600D02*
X154500000Y-104800000D01*
X145500000Y-101900000D02*
X148500000Y-101900000D01*
X144300000Y-100700000D02*
X145500000Y-101900000D01*
X154725500Y-107446100D02*
X154500000Y-107220600D01*
X154725500Y-108996100D02*
X154725500Y-107446100D01*
D14*
X150900000Y-104000000D02*
X145500859Y-104000000D01*
X152225500Y-105325500D02*
X150900000Y-104000000D01*
X145500859Y-104000000D02*
X144803034Y-104697825D01*
X152225500Y-106174500D02*
X152225500Y-105325500D01*
X153225500Y-105774500D02*
X153400000Y-105600000D01*
X153225500Y-108996100D02*
X153225500Y-105774500D01*
X152225500Y-108996100D02*
X152225500Y-106174500D01*
X151725500Y-105825500D02*
X151400000Y-105500000D01*
X151725500Y-108996100D02*
X151725500Y-105825500D01*
X155225500Y-107125500D02*
X155000000Y-106900000D01*
X155000000Y-106900000D02*
X155000000Y-105800000D01*
X155225500Y-108996100D02*
X155225500Y-107125500D01*
M02*
