<?xml version="1.0" standalone="no"?>
 <!DOCTYPE svg PUBLIC "-//W3C//DTD SVG 1.1//EN" 
 "http://www.w3.org/Graphics/SVG/1.1/DTD/svg11.dtd"> 
<svg
  xmlns:svg="http://www.w3.org/2000/svg"
  xmlns="http://www.w3.org/2000/svg"
  xmlns:xlink="http://www.w3.org/1999/xlink"
  version="1.1"
  width="7.490460cm" height="5.857240cm" viewBox="0 0 74904600 58572400">
<title>SVG Picture created as OSO-SWAT-A1-05-F_Silkscreen.svg date 2022/06/02 11:04:38 </title>
  <desc>Picture generated by PCBNEW </desc>
<g style="fill:#000000; fill-opacity:1.000000;stroke:#000000; stroke-opacity:1.000000;
stroke-linecap:round; stroke-linejoin:round;"
 transform="translate(0 0) scale(1 1)">
</g>
<g style="fill:#000000; fill-opacity:0.0; 
stroke:#000000; stroke-width:0.000000; stroke-opacity:1; 
stroke-linecap:round; stroke-linejoin:round;">
</g>
<g style="fill:#F2EDA1; fill-opacity:0.0; 
stroke:#F2EDA1; stroke-width:0.000000; stroke-opacity:1; 
stroke-linecap:round; stroke-linejoin:round;">
</g>
<g style="fill:#F2EDA1; fill-opacity:0.0; 
stroke:#F2EDA1; stroke-width:152400.000000; stroke-opacity:1; 
stroke-linecap:round; stroke-linejoin:round;">
<path d="M64233994.000014 24637993.999993 A2539994.000000 2539994.000000 0.0 0 0 66773994.000000 22098000.000000" />
<path d="M66773994 6477000
L66773994 22098000
" />
<path d="M48994000.000000 22098000.000000 A2540000.000000 2540000.000000 0.0 0 0 51533994.000000 24637999.999993" />
<path d="M51533994 3937000
L64233994 3937000
" />
<path d="M51533993.999986 3936994.000007 A2540006.000000 2540006.000000 0.0 0 0 48993994.000000 6477000.000000" />
</g>
<g style="fill:#F2EDA1; fill-opacity:0.0; 
stroke:#F2EDA1; stroke-width:120000.000000; stroke-opacity:1; 
stroke-linecap:round; stroke-linejoin:round;">
<path d="M10814000 7248000
L37814000 7248000
" />
<path d="M37814000 7248000
L37814000 25258000
" />
<path d="M37814000 25258000
L10814000 25258000
" />
<path d="M10814000 25258000
L10814000 7248000
" />
</g>
<g style="fill:#F2EDA1; fill-opacity:0.0; 
stroke:#F2EDA1; stroke-width:152400.000000; stroke-opacity:1; 
stroke-linecap:round; stroke-linejoin:round;">
<path d="M66774000.000000 6477000.000000 A2540000.000000 2540000.000000 0.0 0 0 64233994.000000 3937000.000007" />
<path d="M48993994 22098000
L48993994 6477000
" />
<path d="M51533994 24638000
L64233994 24638000
" />
</g>
<g style="fill:#F2EDA1; fill-opacity:0.0; 
stroke:#F2EDA1; stroke-width:350000.000000; stroke-opacity:1; 
stroke-linecap:round; stroke-linejoin:round;">
<text x="57504000.000000" y="27068000.000000"
textLength="23337857.000000" font-size="2000000.000000" lengthAdjust="spacingAndGlyphs"
text-anchor="middle" opacity="0">Sensor Watch Tester</text>
<g class="stroked-text"><desc>Sensor Watch Tester</desc>
<path d="M46218285 26925142
L46432571 26996571
L46789714 26996571
L46932571 26925142
L47004000 26853714
L47075428 26710857
L47075428 26568000
L47004000 26425142
L46932571 26353714
L46789714 26282285
L46504000 26210857
L46361142 26139428
L46289714 26068000
L46218285 25925142
L46218285 25782285
L46289714 25639428
L46361142 25568000
L46504000 25496571
L46861142 25496571
L47075428 25568000
" />
<path d="M48289714 26925142
L48146857 26996571
L47861142 26996571
L47718285 26925142
L47646857 26782285
L47646857 26210857
L47718285 26068000
L47861142 25996571
L48146857 25996571
L48289714 26068000
L48361142 26210857
L48361142 26353714
L47646857 26496571
" />
<path d="M49004000 25996571
L49004000 26996571
" />
<path d="M49004000 26139428
L49075428 26068000
L49218285 25996571
L49432571 25996571
L49575428 26068000
L49646857 26210857
L49646857 26996571
" />
<path d="M50289714 26925142
L50432571 26996571
L50718285 26996571
L50861142 26925142
L50932571 26782285
L50932571 26710857
L50861142 26568000
L50718285 26496571
L50504000 26496571
L50361142 26425142
L50289714 26282285
L50289714 26210857
L50361142 26068000
L50504000 25996571
L50718285 25996571
L50861142 26068000
" />
<path d="M51789714 26996571
L51646857 26925142
L51575428 26853714
L51504000 26710857
L51504000 26282285
L51575428 26139428
L51646857 26068000
L51789714 25996571
L52004000 25996571
L52146857 26068000
L52218285 26139428
L52289714 26282285
L52289714 26710857
L52218285 26853714
L52146857 26925142
L52004000 26996571
L51789714 26996571
" />
<path d="M52932571 26996571
L52932571 25996571
" />
<path d="M52932571 26282285
L53004000 26139428
L53075428 26068000
L53218285 25996571
L53361142 25996571
" />
<path d="M54861142 25496571
L55218285 26996571
L55503999 25925142
L55789714 26996571
L56146857 25496571
" />
<path d="M57361142 26996571
L57361142 26210857
L57289714 26068000
L57146857 25996571
L56861142 25996571
L56718285 26068000
" />
<path d="M57361142 26925142
L57218285 26996571
L56861142 26996571
L56718285 26925142
L56646857 26782285
L56646857 26639428
L56718285 26496571
L56861142 26425142
L57218285 26425142
L57361142 26353714
" />
<path d="M57861142 25996571
L58432571 25996571
" />
<path d="M58075428 25496571
L58075428 26782285
L58146857 26925142
L58289714 26996571
L58432571 26996571
" />
<path d="M59575428 26925142
L59432571 26996571
L59146857 26996571
L59003999 26925142
L58932571 26853714
L58861142 26710857
L58861142 26282285
L58932571 26139428
L59003999 26068000
L59146857 25996571
L59432571 25996571
L59575428 26068000
" />
<path d="M60218285 26996571
L60218285 25496571
" />
<path d="M60861142 26996571
L60861142 26210857
L60789714 26068000
L60646857 25996571
L60432571 25996571
L60289714 26068000
L60218285 26139428
" />
<path d="M62503999 25496571
L63361142 25496571
" />
<path d="M62932571 26996571
L62932571 25496571
" />
<path d="M64432571 26925142
L64289714 26996571
L64003999 26996571
L63861142 26925142
L63789714 26782285
L63789714 26210857
L63861142 26068000
L64003999 25996571
L64289714 25996571
L64432571 26068000
L64503999 26210857
L64503999 26353714
L63789714 26496571
" />
<path d="M65075428 26925142
L65218285 26996571
L65503999 26996571
L65646857 26925142
L65718285 26782285
L65718285 26710857
L65646857 26568000
L65503999 26496571
L65289714 26496571
L65146857 26425142
L65075428 26282285
L65075428 26210857
L65146857 26068000
L65289714 25996571
L65503999 25996571
L65646857 26068000
" />
<path d="M66146857 25996571
L66718285 25996571
" />
<path d="M66361142 25496571
L66361142 26782285
L66432571 26925142
L66575428 26996571
L66718285 26996571
" />
<path d="M67789714 26925142
L67646857 26996571
L67361142 26996571
L67218285 26925142
L67146857 26782285
L67146857 26210857
L67218285 26068000
L67361142 25996571
L67646857 25996571
L67789714 26068000
L67861142 26210857
L67861142 26353714
L67146857 26496571
" />
<path d="M68504000 26996571
L68504000 25996571
" />
<path d="M68504000 26282285
L68575428 26139428
L68646857 26068000
L68789714 25996571
L68932571 25996571
" />
</g></g>
<g style="fill:#F2EDA1; fill-opacity:0.0; 
stroke:#F2EDA1; stroke-width:200000.000000; stroke-opacity:1; 
stroke-linecap:round; stroke-linejoin:round;">
<text x="57504000.000000" y="29143000.000000"
textLength="16774048.000000" font-size="1533333.000000" lengthAdjust="spacingAndGlyphs"
text-anchor="middle" opacity="0">OSO-SWAT-A2-00</text>
<g class="stroked-text"><desc>OSO-SWAT-A2-00</desc>
<path d="M49837333 27938238
L50056380 27938238
L50165904 27993000
L50275428 28102523
L50330190 28321571
L50330190 28704904
L50275428 28923952
L50165904 29033476
L50056380 29088238
L49837333 29088238
L49727809 29033476
L49618285 28923952
L49563523 28704904
L49563523 28321571
L49618285 28102523
L49727809 27993000
L49837333 27938238
" />
<path d="M50768285 29033476
L50932571 29088238
L51206380 29088238
L51315904 29033476
L51370666 28978714
L51425428 28869190
L51425428 28759666
L51370666 28650142
L51315904 28595380
L51206380 28540619
L50987333 28485857
L50877809 28431095
L50823047 28376333
L50768285 28266809
L50768285 28157285
L50823047 28047761
L50877809 27993000
L50987333 27938238
L51261142 27938238
L51425428 27993000
" />
<path d="M52137333 27938238
L52356380 27938238
L52465904 27993000
L52575428 28102523
L52630190 28321571
L52630190 28704904
L52575428 28923952
L52465904 29033476
L52356380 29088238
L52137333 29088238
L52027809 29033476
L51918285 28923952
L51863523 28704904
L51863523 28321571
L51918285 28102523
L52027809 27993000
L52137333 27938238
" />
<path d="M53123047 28650142
L53999238 28650142
" />
<path d="M54492095 29033476
L54656380 29088238
L54930190 29088238
L55039714 29033476
L55094476 28978714
L55149238 28869190
L55149238 28759666
L55094476 28650142
L55039714 28595380
L54930190 28540619
L54711142 28485857
L54601619 28431095
L54546857 28376333
L54492095 28266809
L54492095 28157285
L54546857 28047761
L54601619 27993000
L54711142 27938238
L54984952 27938238
L55149238 27993000
" />
<path d="M55532571 27938238
L55806380 29088238
L56025428 28266809
L56244476 29088238
L56518285 27938238
" />
<path d="M56901619 28759666
L57449238 28759666
" />
<path d="M56792095 29088238
L57175428 27938238
L57558761 29088238
" />
<path d="M57777809 27938238
L58434952 27938238
" />
<path d="M58106380 29088238
L58106380 27938238
" />
<path d="M58818285 28650142
L59694476 28650142
" />
<path d="M60187333 28759666
L60734952 28759666
" />
<path d="M60077809 29088238
L60461142 27938238
L60844476 29088238
" />
<path d="M61173047 28047761
L61227809 27993000
L61337333 27938238
L61611142 27938238
L61720666 27993000
L61775428 28047761
L61830190 28157285
L61830190 28266809
L61775428 28431095
L61118285 29088238
L61830190 29088238
" />
<path d="M62323047 28650142
L63199238 28650142
" />
<path d="M63965904 27938238
L64075428 27938238
L64184952 27993000
L64239714 28047761
L64294476 28157285
L64349238 28376333
L64349238 28650142
L64294476 28869190
L64239714 28978714
L64184952 29033476
L64075428 29088238
L63965904 29088238
L63856380 29033476
L63801619 28978714
L63746857 28869190
L63692095 28650142
L63692095 28376333
L63746857 28157285
L63801619 28047761
L63856380 27993000
L63965904 27938238
" />
<path d="M65061142 27938238
L65170666 27938238
L65280190 27993000
L65334952 28047761
L65389714 28157285
L65444476 28376333
L65444476 28650142
L65389714 28869190
L65334952 28978714
L65280190 29033476
L65170666 29088238
L65061142 29088238
L64951619 29033476
L64896857 28978714
L64842095 28869190
L64787333 28650142
L64787333 28376333
L64842095 28157285
L64896857 28047761
L64951619 27993000
L65061142 27938238
" />
</g></g>
<g style="fill:#F2EDA1; fill-opacity:0.0; 
stroke:#F2EDA1; stroke-width:150000.000000; stroke-opacity:1; 
stroke-linecap:round; stroke-linejoin:round;">
<text x="66480000.000000" y="41394000.000000"
textLength="3307619.000000" font-size="1333333.000000" lengthAdjust="spacingAndGlyphs"
text-anchor="middle" opacity="0">SW2</text>
<g class="stroked-text"><desc>SW2</desc>
<path d="M65146666 41298761
L65289523 41346380
L65527619 41346380
L65622857 41298761
L65670476 41251142
L65718095 41155904
L65718095 41060666
L65670476 40965428
L65622857 40917809
L65527619 40870190
L65337142 40822571
L65241904 40774952
L65194285 40727333
L65146666 40632095
L65146666 40536857
L65194285 40441619
L65241904 40394000
L65337142 40346380
L65575238 40346380
L65718095 40394000
" />
<path d="M66051428 40346380
L66289523 41346380
L66480000 40632095
L66670476 41346380
L66908571 40346380
" />
<path d="M67241904 40441619
L67289523 40394000
L67384761 40346380
L67622857 40346380
L67718095 40394000
L67765714 40441619
L67813333 40536857
L67813333 40632095
L67765714 40774952
L67194285 41346380
L67813333 41346380
" />
</g><text x="42096000.000000" y="2532000.000000"
textLength="2195000.000000" font-size="1333333.000000" lengthAdjust="spacingAndGlyphs"
text-anchor="middle" opacity="0">H6</text>
<g class="stroked-text"><desc>H6</desc>
<path d="M41334095 2484381
L41334095 1484381
" />
<path d="M41334095 1960572
L41905523 1960572
" />
<path d="M41905523 2484381
L41905523 1484381
" />
<path d="M42810285 1484381
L42619809 1484381
L42524571 1532000
L42476952 1579620
L42381714 1722477
L42334095 1912953
L42334095 2293905
L42381714 2389143
L42429333 2436762
L42524571 2484381
L42715047 2484381
L42810285 2436762
L42857904 2389143
L42905523 2293905
L42905523 2055810
L42857904 1960572
L42810285 1912953
L42715047 1865334
L42524571 1865334
L42429333 1912953
L42381714 1960572
L42334095 2055810
" />
</g></g>
<g style="fill:#F2EDA1; fill-opacity:0.0; 
stroke:#F2EDA1; stroke-width:146304.000000; stroke-opacity:1; 
stroke-linecap:round; stroke-linejoin:round;">
<g transform="rotate(-90.000000 53057994.000000 0.000000)">
<text x="53057994.000000" y="0.000000"
textLength="2004061.000000" font-size="888661.000000" lengthAdjust="spacingAndGlyphs"
text-anchor="end" opacity="0">JP2</text>
</g>
<g class="stroked-text"><desc>JP2</desc>
<path d="M52359760 1555042
L52835828 1555042
L52931042 1586780
L52994518 1650255
L53026256 1745469
L53026256 1808945
" />
<path d="M53026256 1237663
L52359760 1237663
L52359760 983759
L52391498 920284
L52423235 888546
L52486711 856808
L52581925 856808
L52645401 888546
L52677139 920284
L52708877 983759
L52708877 1237663
" />
<path d="M52423235 602905
L52391498 571167
L52359760 507691
L52359760 349001
L52391498 285526
L52423235 253788
L52486711 222050
L52550187 222050
L52645401 253788
L53026256 634642
L53026256 222050
" />
</g></g>
<g style="fill:#F2EDA1; fill-opacity:0.0; 
stroke:#F2EDA1; stroke-width:150000.000000; stroke-opacity:1; 
stroke-linecap:round; stroke-linejoin:round;">
<text x="66480000.000000" y="49014000.000000"
textLength="3237814.000000" font-size="1333333.000000" lengthAdjust="spacingAndGlyphs"
text-anchor="middle" opacity="0">SW3</text>
<g class="stroked-text"><desc>SW3</desc>
<path d="M65146666 48918761
L65289523 48966380
L65527619 48966380
L65622857 48918761
L65670476 48871142
L65718095 48775904
L65718095 48680666
L65670476 48585428
L65622857 48537809
L65527619 48490190
L65337142 48442571
L65241904 48394952
L65194285 48347333
L65146666 48252095
L65146666 48156857
L65194285 48061619
L65241904 48014000
L65337142 47966380
L65575238 47966380
L65718095 48014000
" />
<path d="M66051428 47966380
L66289523 48966380
L66480000 48252095
L66670476 48966380
L66908571 47966380
" />
<path d="M67194285 47966380
L67813333 47966380
L67480000 48347333
L67622857 48347333
L67718095 48394952
L67765714 48442571
L67813333 48537809
L67813333 48775904
L67765714 48871142
L67718095 48918761
L67622857 48966380
L67337142 48966380
L67241904 48918761
L67194285 48871142
" />
</g><text x="24316000.000000" y="1905000.000000"
textLength="2735000.000000" font-size="1693333.000000" lengthAdjust="spacingAndGlyphs"
text-anchor="middle" opacity="0">U1</text>
<g class="stroked-text"><desc>U1</desc>
<path d="M23348380 574524
L23348380 1602620
L23408857 1723572
L23469333 1784048
L23590285 1844524
L23832190 1844524
L23953142 1784048
L24013619 1723572
L24074095 1602620
L24074095 574524
" />
<path d="M25344095 1844524
L24618380 1844524
" />
<path d="M24981238 1844524
L24981238 574524
L24860285 755953
L24739333 876905
L24618380 937381
" />
</g><text x="2599000.000000" y="8247000.000000"
textLength="2195000.000000" font-size="1333333.000000" lengthAdjust="spacingAndGlyphs"
text-anchor="middle" opacity="0">H1</text>
<g class="stroked-text"><desc>H1</desc>
<path d="M1837096 8199380
L1837096 7199380
" />
<path d="M1837096 7675571
L2408524 7675571
" />
<path d="M2408524 8199380
L2408524 7199380
" />
<path d="M3408524 8199380
L2837096 8199380
" />
<path d="M3122810 8199380
L3122810 7199380
L3027572 7342238
L2932334 7437476
L2837096 7485095
" />
</g><text x="42604000.000000" y="2151000.000000"
textLength="2195000.000000" font-size="1333333.000000" lengthAdjust="spacingAndGlyphs"
text-anchor="middle" opacity="0">H2</text>
<g class="stroked-text"><desc>H2</desc>
<path d="M41842095 2103381
L41842095 1103381
" />
<path d="M41842095 1579572
L42413523 1579572
" />
<path d="M42413523 2103381
L42413523 1103381
" />
<path d="M42842095 1198620
L42889714 1151000
L42984952 1103381
L43223047 1103381
L43318285 1151000
L43365904 1198620
L43413523 1293858
L43413523 1389096
L43365904 1531953
L42794476 2103381
L43413523 2103381
" />
</g><text x="48321216.000000" y="58158000.000000"
textLength="3099762.000000" font-size="1333333.000000" lengthAdjust="spacingAndGlyphs"
text-anchor="middle" opacity="0">BZ1</text>
<g class="stroked-text"><desc>BZ1</desc>
<path d="M47440263 57586571
L47583120 57634190
L47630739 57681809
L47678358 57777047
L47678358 57919904
L47630739 58015142
L47583120 58062761
L47487882 58110380
L47106930 58110380
L47106930 57110380
L47440263 57110380
L47535501 57158000
L47583120 57205619
L47630739 57300857
L47630739 57396095
L47583120 57491333
L47535501 57538952
L47440263 57586571
L47106930 57586571
" />
<path d="M48011692 57110380
L48678358 57110380
L48011692 58110380
L48678358 58110380
" />
<path d="M49583120 58110380
L49011692 58110380
" />
<path d="M49297406 58110380
L49297406 57110380
L49202168 57253238
L49106930 57348476
L49011692 57396095
" />
</g><text x="66480000.000000" y="33774000.000000"
textLength="3242619.000000" font-size="1333333.000000" lengthAdjust="spacingAndGlyphs"
text-anchor="middle" opacity="0">SW1</text>
<g class="stroked-text"><desc>SW1</desc>
<path d="M65146666 33678761
L65289523 33726380
L65527619 33726380
L65622857 33678761
L65670476 33631142
L65718095 33535904
L65718095 33440666
L65670476 33345428
L65622857 33297809
L65527619 33250190
L65337142 33202571
L65241904 33154952
L65194285 33107333
L65146666 33012095
L65146666 32916857
L65194285 32821619
L65241904 32774000
L65337142 32726380
L65575238 32726380
L65718095 32774000
" />
<path d="M66051428 32726380
L66289523 33726380
L66480000 33012095
L66670476 33726380
L66908571 32726380
" />
<path d="M67813333 33726380
L67241904 33726380
" />
<path d="M67527619 33726380
L67527619 32726380
L67432380 32869238
L67337142 32964476
L67241904 33012095
" />
</g><text x="39429000.000000" y="57818000.000000"
textLength="2195000.000000" font-size="1333333.000000" lengthAdjust="spacingAndGlyphs"
text-anchor="middle" opacity="0">H7</text>
<g class="stroked-text"><desc>H7</desc>
<path d="M38667095 57770380
L38667095 56770380
" />
<path d="M38667095 57246571
L39238523 57246571
" />
<path d="M39238523 57770380
L39238523 56770380
" />
<path d="M39619476 56770380
L40286142 56770380
L39857571 57770380
" />
</g><text x="1583000.000000" y="30726000.000000"
textLength="2195000.000000" font-size="1333333.000000" lengthAdjust="spacingAndGlyphs"
text-anchor="middle" opacity="0">H5</text>
<g class="stroked-text"><desc>H5</desc>
<path d="M821096 30678380
L821096 29678380
" />
<path d="M821096 30154571
L1392524 30154571
" />
<path d="M1392524 30678380
L1392524 29678380
" />
<path d="M2344905 29678380
L1868715 29678380
L1821096 30154571
L1868715 30106952
L1963953 30059333
L2202048 30059333
L2297286 30106952
L2344905 30154571
L2392524 30249809
L2392524 30487904
L2344905 30583142
L2297286 30630761
L2202048 30678380
L1963953 30678380
L1868715 30630761
L1821096 30583142
" />
</g></g>
<g style="fill:#F2EDA1; fill-opacity:0.0; 
stroke:#F2EDA1; stroke-width:146304.000000; stroke-opacity:1; 
stroke-linecap:round; stroke-linejoin:round;">
<g transform="rotate(-90.000000 60169994.000000 2540000.000000)">
<text x="60169994.000000" y="2540000.000000"
textLength="2004061.000000" font-size="888661.000000" lengthAdjust="spacingAndGlyphs"
text-anchor="start" opacity="0">JP1</text>
</g>
<g class="stroked-text"><desc>JP1</desc>
<path d="M59471760 2095786
L59947828 2095786
L60043042 2127524
L60106518 2191000
L60138256 2286213
L60138256 2349689
" />
<path d="M60138256 1778407
L59471760 1778407
L59471760 1524504
L59503498 1461028
L59535235 1429290
L59598711 1397552
L59693925 1397552
L59757401 1429290
L59789139 1461028
L59820877 1524504
L59820877 1778407
" />
<path d="M60138256 762794
L60138256 1143649
" />
<path d="M60138256 953221
L59471760 953221
L59566973 1016697
L59630449 1080173
L59662187 1143649
" />
</g></g>
<g style="fill:#F2EDA1; fill-opacity:0.0; 
stroke:#F2EDA1; stroke-width:150000.000000; stroke-opacity:1; 
stroke-linecap:round; stroke-linejoin:round;">
<text x="1075000.000000" y="52951000.000000"
textLength="2190195.000000" font-size="1333333.000000" lengthAdjust="spacingAndGlyphs"
text-anchor="middle" opacity="0">H3</text>
<g class="stroked-text"><desc>H3</desc>
<path d="M313096 52903380
L313096 51903380
" />
<path d="M313096 52379571
L884524 52379571
" />
<path d="M884524 52903380
L884524 51903380
" />
<path d="M1265477 51903380
L1884524 51903380
L1551191 52284333
L1694048 52284333
L1789286 52331952
L1836905 52379571
L1884524 52474809
L1884524 52712904
L1836905 52808142
L1789286 52855761
L1694048 52903380
L1408334 52903380
L1313096 52855761
L1265477 52808142
" />
</g><text x="73846000.000000" y="53205000.000000"
textLength="2195000.000000" font-size="1333333.000000" lengthAdjust="spacingAndGlyphs"
text-anchor="middle" opacity="0">H4</text>
<g class="stroked-text"><desc>H4</desc>
<path d="M73084095 53157380
L73084095 52157380
" />
<path d="M73084095 52633571
L73655523 52633571
" />
<path d="M73655523 53157380
L73655523 52157380
" />
<path d="M74560285 52490714
L74560285 53157380
" />
<path d="M74322190 52109761
L74084095 52824047
L74703142 52824047
" />
</g></g>
<g style="fill:#F2EDA1; fill-opacity:0.0; 
stroke:#F2EDA1; stroke-width:120000.000000; stroke-opacity:1; 
stroke-linecap:round; stroke-linejoin:round;">
<path d="M56630000 40144000
L56630000 41644000
" />
<path d="M57880000 44144000
L62380000 44144000
" />
<path d="M63630000 41644000
L63630000 40144000
" />
<path d="M62380000 37644000
L57880000 37644000
" />
<path d="M57880000 51764000
L62380000 51764000
" />
<path d="M63630000 49264000
L63630000 47764000
" />
<path d="M62380000 45264000
L57880000 45264000
" />
<path d="M56630000 47764000
L56630000 49264000
" />
<path d="M41921216.362008 45490000.084846 A6573431.000000 6573431.000000 0.0 0 0 41921216.139837 48489998.967226" />
<circle cx="48321216.000000" cy="46990000.000000" r="6230000.000000" /> 
<path d="M62380000 30024000
L57880000 30024000
" />
<path d="M57880000 36524000
L62380000 36524000
" />
<path d="M56630000 32524000
L56630000 34024000
" />
<path d="M63630000 34024000
L63630000 32524000
" />
</g>
<g style="fill:#F2EDA1; fill-opacity:0.0; 
stroke:#F2EDA1; stroke-width:152400.000000; stroke-opacity:1; 
stroke-linecap:round; stroke-linejoin:round;">
<path d="M30678618 51311400
L31180250 51016500
" />
<path d="M13079700 45899831
L13093491 46626068
" />
<path d="M31579869 29003732
L32045631 29330320
" />
<path d="M29589980 27904031
L30105369 28146581
" />
<path d="M18972191 27923341
L19537191 27683560
" />
<path d="M12885391 33533310
L13187191 33020691
" />
<path d="M30164631 51584250
L30678618 51311400
" />
<path d="M15469200 30537450
L15469200 30290800
" />
<path d="M12629100 43500668
L12116432 42647690
" />
<path d="M32933081 30046882
L32933081 30340400
" />
<path d="M13308450 46949918
L13546860 46949918
" />
<path d="M17372300 28802532
L17889060 28484191
" />
<path d="M36516000 37120369
L36029550 36250832
" />
<path d="M12116432 42647690
L12116432 35153900
" />
<path d="M32589968 50006390
L33028168 49630200
" />
<path d="M36516000 42541568
L36516000 37120369
" />
<path d="M32933081 30340400
L35077331 32822260
" />
<path d="M12346600 34598560
L12604260 34059719
" />
<path d="M32045631 29330319
L32496268 29678932
" />
<path d="M35077331 32822260
L35328131 32822260
" />
<path d="M26066000 27883561
L26066000 30383559
" />
<path d="M22566000 27883561
L22566000 30383559
" />
<path d="M31665309 50699550
L32135209 50363309
" />
<path d="M29063560 27683559
L27966000 27683559
" />
<path d="M20865999 27883561
L20865999 30383559
" />
<path d="M29093868 52063809
L29635440 51835050
" />
<path d="M18422341 28190669
L18972191 27923341
" />
<path d="M35171031 46809331
L35343290 46809331
" />
<path d="M15919850 29889782
L16388382 29506719
" />
<path d="M13546860 46949918
L15689700 49431750
" />
<path d="M20666000 27683559
L19537191 27683559
" />
<path d="M31180250 51016500
L31665309 50699550
" />
<path d="M13093491 46626068
L13308450 46949918
" />
<path d="M17889060 28484191
L18422341 28190669
" />
<path d="M13187191 33020691
L13326360 33020691
" />
<path d="M15469200 30290800
L15919850 29889782
" />
<path d="M18006182 51314150
L18511919 51588390
" />
<path d="M16388382 29506719
L16872069 29144260
" />
<path d="M35328131 32822260
L35540350 33085460
" />
<path d="M15689700 49431750
L15689700 49637090
" />
<path d="M35540350 33085460
L35529318 34249919
" />
<path d="M36229368 43150640
L36516000 42541568
" />
<path d="M35617518 46426250
L35628540 45850231
" />
<path d="M15689700 49637090
L16125160 50007768
" />
<path d="M16872069 29144260
L17372300 28802532
" />
<path d="M12629100 43500668
L13079700 45899831
" />
<path d="M30609709 28409768
L31101658 28696409
" />
<path d="M30105369 28146581
L30609709 28409768
" />
<path d="M33028168 49630200
L33028168 49291190
" />
<path d="M32496268 29678932
L32933081 30046882
" />
<path d="M33028168 49291190
L35171031 46809331
" />
<path d="M17514232 51016500
L18006182 51314150
" />
<path d="M29063560 27683559
L29589980 27904031
" />
<path d="M29635440 51835050
L30164631 51584250
" />
<path d="M19032819 51839190
L19568869 52063809
" />
<path d="M12116432 35153900
L12346600 34598560
" />
<path d="M35343290 46809331
L35617518 46426250
" />
<path d="M32135209 50363309
L32589968 50006390
" />
<path d="M17037450 50699550
L17514232 51016500
" />
<path d="M35628540 45850231
L36229368 43150640
" />
<path d="M18511919 51588390
L19032819 51839190
" />
<path d="M19568869 52063809
L29093868 52063809
" />
<path d="M16125160 50007768
L16574432 50361931
" />
<path d="M27766001 27883561
L27766001 30383559
" />
<path d="M31101658 28696409
L31579869 29003732
" />
<path d="M36029550 36250832
L35529318 34249919
" />
<path d="M25866000 27683559
L22766000 27683559
" />
<path d="M12604260 34059719
L12885391 33533310
" />
<path d="M16574432 50361931
L17037450 50699550
" />
<path d="M13326360 33020691
L15469200 30537450
" />
<path d="M20865940.990700 27883560.982307 A199941.000000 199941.000000 0.0 0 0 20666000.000000 27683559.000000" />
<path d="M26065999.999998 27883561.000000 A200001.000000 200001.000000 0.0 0 0 25866000.000000 27683559.000002" />
<path d="M26065999.000021 30383559.000007 A850001.000000 850001.000000 0.0 0 0 27766000.999979 30383559.000000" />
<path d="M27966000.000000 27683559.000010 A200001.000000 200001.000000 0.0 0 0 27766001.000002 27883561.000000" />
<path d="M20865998.000001 30383559.000001 A850001.000000 850001.000000 0.0 0 0 22565999.999999 30383559.000000" />
<path d="M22766000.000354 27683560.012246 A200070.000000 200070.000000 0.0 0 0 22566000.011898 27883561.000004" />
<g >
</g>
<g >
</g>
<g >
</g>
<g >
</g>
<g >
</g>
<g >
</g>
<g >
</g>
<g >
</g>
<g >
</g>
<g >
</g>
<g >
</g>
<g >
</g>
<g >
</g>
<g >
</g>
<g >
</g>
<g >
</g>
<g >
</g>
<g >
</g>
<g >
</g>
<g >
</g>
<g >
</g>
<g >
</g>
<g >
</g>
<g >
</g>
</g>
<g style="fill:#000000; fill-opacity:0.0; 
stroke:#000000; stroke-width:152400.000000; stroke-opacity:1; 
stroke-linecap:round; stroke-linejoin:round;">
</g>
<g style="fill:#D0D2CD; fill-opacity:0.0; 
stroke:#D0D2CD; stroke-width:152400.000000; stroke-opacity:1; 
stroke-linecap:round; stroke-linejoin:round;">
</g>
<g style="fill:#D0D2CD; fill-opacity:0.0; 
stroke:#D0D2CD; stroke-width:50000.000000; stroke-opacity:1; 
stroke-linecap:round; stroke-linejoin:round;">
<path d="M4504000 4318000
L71179000 4318000
" />
<path d="M71179000 4318000
L71179000 55118000
" />
<path d="M71179000 55118000
L4504000 55118000
" />
<path d="M4504000 55118000
L4504000 4318000
" />
<g >
</g>
<g >
</g>
<g >
</g>
<g >
</g>
<g >
</g>
<g >
</g>
<g >
</g>
<g >
</g>
<g >
</g>
<g >
</g>
<g >
</g>
<g >
</g>
<g >
</g>
<g >
</g>
<g >
</g>
<g >
</g>
<g >
</g>
<g >
</g>
<g >
</g>
<g >
</g>
<g >
</g>
<g >
</g>
<g >
</g>
<g >
</g>
</g> 
</svg>
