<?xml version="1.0" standalone="no"?>
 <!DOCTYPE svg PUBLIC "-//W3C//DTD SVG 1.1//EN" 
 "http://www.w3.org/Graphics/SVG/1.1/DTD/svg11.dtd"> 
<svg
  xmlns:svg="http://www.w3.org/2000/svg"
  xmlns="http://www.w3.org/2000/svg"
  xmlns:xlink="http://www.w3.org/1999/xlink"
  version="1.1"
  width="7.490460cm" height="5.857240cm" viewBox="0 0 74904600 58572400">
<title>SVG Picture created as OSO-SWAT-A1-05-F_Mask.svg date 2022/06/02 12:09:06 </title>
  <desc>Picture generated by PCBNEW </desc>
<g style="fill:#000000; fill-opacity:1.000000;stroke:#000000; stroke-opacity:1.000000;
stroke-linecap:round; stroke-linejoin:round;"
 transform="translate(0 0) scale(1 1)">
</g>
<g style="fill:#000000; fill-opacity:0.0; 
stroke:#000000; stroke-width:0.000000; stroke-opacity:1; 
stroke-linecap:round; stroke-linejoin:round;">
</g>
<g style="fill:#D864FF; fill-opacity:0.0; 
stroke:#D864FF; stroke-width:0.000000; stroke-opacity:1; 
stroke-linecap:round; stroke-linejoin:round;">
</g>
<g style="fill:#D864FF; fill-opacity:0.0; 
stroke:#D864FF; stroke-width:100000.000000; stroke-opacity:1; 
stroke-linecap:round; stroke-linejoin:round;">
<path d="M3029000 3318000
L4045000 3318000
" />
<path d="M4045000 3318000
L4045000 4334000
" />
<path d="M4045000 4334000
L3029000 4334000
" />
<path d="M3029000 4334000
L3029000 3318000
" />
</g>
<g style="fill:#D864FF; fill-opacity:1.0; 
stroke:#D864FF; stroke-width:21200.000000; stroke-opacity:1; 
stroke-linecap:round; stroke-linejoin:round;">
<path style="fill:#D864FF; fill-opacity:1.0; 
stroke:#D864FF; stroke-width:21200.000000; stroke-opacity:1; 
stroke-linecap:round; stroke-linejoin:round;fill-rule:evenodd;"
d="M 3029000.000000,3318000.000000
4045000.000000,3318000.000000
4045000.000000,4334000.000000
3029000.000000,4334000.000000
" /> 
</g>
<g style="fill:#D864FF; fill-opacity:1.0; 
stroke:#D864FF; stroke-width:100000.000000; stroke-opacity:1; 
stroke-linecap:round; stroke-linejoin:round;">
</g>
<g style="fill:#D864FF; fill-opacity:0.0; 
stroke:#D864FF; stroke-width:100000.000000; stroke-opacity:1; 
stroke-linecap:round; stroke-linejoin:round;">
<path d="M71538000 54160000
L72554000 54160000
" />
<path d="M72554000 54160000
L72554000 55176000
" />
<path d="M72554000 55176000
L71538000 55176000
" />
<path d="M71538000 55176000
L71538000 54160000
" />
</g>
<g style="fill:#D864FF; fill-opacity:1.0; 
stroke:#D864FF; stroke-width:21200.000000; stroke-opacity:1; 
stroke-linecap:round; stroke-linejoin:round;">
<path style="fill:#D864FF; fill-opacity:1.0; 
stroke:#D864FF; stroke-width:21200.000000; stroke-opacity:1; 
stroke-linecap:round; stroke-linejoin:round;fill-rule:evenodd;"
d="M 71538000.000000,54160000.000000
72554000.000000,54160000.000000
72554000.000000,55176000.000000
71538000.000000,55176000.000000
" /> 
<g >
</g>
<g style="fill:#000000; fill-opacity:1.0; 
stroke:#000000; stroke-width:21200.000000; stroke-opacity:1; 
stroke-linecap:round; stroke-linejoin:round;">
</g>
<g style="fill:#000000; fill-opacity:1.0; 
stroke:#000000; stroke-width:1.000000; stroke-opacity:1; 
stroke-linecap:round; stroke-linejoin:round;">
<circle cx="56880000.000000" cy="43144000.000000" r="1000000.000000" /> 
</g>
<g style="fill:#000000; fill-opacity:1.0; 
stroke:#000000; stroke-width:21200.000000; stroke-opacity:1; 
stroke-linecap:round; stroke-linejoin:round;">
</g>
<g style="fill:#000000; fill-opacity:1.0; 
stroke:#000000; stroke-width:1.000000; stroke-opacity:1; 
stroke-linecap:round; stroke-linejoin:round;">
<circle cx="63380000.000000" cy="43144000.000000" r="1000000.000000" /> 
</g>
<g style="fill:#000000; fill-opacity:1.0; 
stroke:#000000; stroke-width:21200.000000; stroke-opacity:1; 
stroke-linecap:round; stroke-linejoin:round;">
</g>
<g style="fill:#000000; fill-opacity:1.0; 
stroke:#000000; stroke-width:1.000000; stroke-opacity:1; 
stroke-linecap:round; stroke-linejoin:round;">
<circle cx="63380000.000000" cy="38644000.000000" r="1000000.000000" /> 
</g>
<g style="fill:#000000; fill-opacity:1.0; 
stroke:#000000; stroke-width:21200.000000; stroke-opacity:1; 
stroke-linecap:round; stroke-linejoin:round;">
</g>
<g style="fill:#000000; fill-opacity:1.0; 
stroke:#000000; stroke-width:1.000000; stroke-opacity:1; 
stroke-linecap:round; stroke-linejoin:round;">
<circle cx="56880000.000000" cy="38644000.000000" r="1000000.000000" /> 
</g>
<g style="fill:#000000; fill-opacity:1.0; 
stroke:#000000; stroke-width:21200.000000; stroke-opacity:1; 
stroke-linecap:round; stroke-linejoin:round;">
</g>
<g >
</g>
<g style="fill:#000000; fill-opacity:1.0; 
stroke:#000000; stroke-width:21200.000000; stroke-opacity:1; 
stroke-linecap:round; stroke-linejoin:round;">
</g>
<g style="fill:#000000; fill-opacity:1.0; 
stroke:#000000; stroke-width:1.000000; stroke-opacity:1; 
stroke-linecap:round; stroke-linejoin:round;">
<circle cx="42604000.000000" cy="29718000.000000" r="1350000.000000" /> 
</g>
<g style="fill:#000000; fill-opacity:1.0; 
stroke:#000000; stroke-width:21200.000000; stroke-opacity:1; 
stroke-linecap:round; stroke-linejoin:round;">
</g>
<g >
</g>
<g style="fill:#000000; fill-opacity:1.0; 
stroke:#000000; stroke-width:21200.000000; stroke-opacity:1; 
stroke-linecap:round; stroke-linejoin:round;">
</g>
<g style="fill:#000000; fill-opacity:1.0; 
stroke:#000000; stroke-width:1.000000; stroke-opacity:1; 
stroke-linecap:round; stroke-linejoin:round;">
<circle cx="50264000.000000" cy="6667500.000000" r="939800.000000" /> 
</g>
<g style="fill:#000000; fill-opacity:1.0; 
stroke:#000000; stroke-width:21200.000000; stroke-opacity:1; 
stroke-linecap:round; stroke-linejoin:round;">
</g>
<g style="fill:#000000; fill-opacity:1.0; 
stroke:#000000; stroke-width:1879600.000000; stroke-opacity:1; 
stroke-linecap:round; stroke-linejoin:round;">
</g>
<g style="fill:#000000; fill-opacity:0.0; 
stroke:#000000; stroke-width:1879600.000000; stroke-opacity:1; 
stroke-linecap:round; stroke-linejoin:round;">
<path d="M48105000 6667500
L49883000 6667500
" />
</g>
<g style="fill:#000000; fill-opacity:1.0; 
stroke:#000000; stroke-width:1.000000; stroke-opacity:1; 
stroke-linecap:round; stroke-linejoin:round;">
<circle cx="50264000.000000" cy="9207500.000000" r="939800.000000" /> 
</g>
<g style="fill:#000000; fill-opacity:1.0; 
stroke:#000000; stroke-width:21200.000000; stroke-opacity:1; 
stroke-linecap:round; stroke-linejoin:round;">
</g>
<g style="fill:#000000; fill-opacity:1.0; 
stroke:#000000; stroke-width:1879600.000000; stroke-opacity:1; 
stroke-linecap:round; stroke-linejoin:round;">
</g>
<g style="fill:#000000; fill-opacity:0.0; 
stroke:#000000; stroke-width:1879600.000000; stroke-opacity:1; 
stroke-linecap:round; stroke-linejoin:round;">
<path d="M48105000 9207500
L49883000 9207500
" />
</g>
<g style="fill:#000000; fill-opacity:1.0; 
stroke:#000000; stroke-width:1.000000; stroke-opacity:1; 
stroke-linecap:round; stroke-linejoin:round;">
<circle cx="50264000.000000" cy="11747500.000000" r="939800.000000" /> 
</g>
<g style="fill:#000000; fill-opacity:1.0; 
stroke:#000000; stroke-width:21200.000000; stroke-opacity:1; 
stroke-linecap:round; stroke-linejoin:round;">
</g>
<g style="fill:#000000; fill-opacity:1.0; 
stroke:#000000; stroke-width:1879600.000000; stroke-opacity:1; 
stroke-linecap:round; stroke-linejoin:round;">
</g>
<g style="fill:#000000; fill-opacity:0.0; 
stroke:#000000; stroke-width:1879600.000000; stroke-opacity:1; 
stroke-linecap:round; stroke-linejoin:round;">
<path d="M48105000 11747500
L49883000 11747500
" />
</g>
<g style="fill:#000000; fill-opacity:1.0; 
stroke:#000000; stroke-width:1.000000; stroke-opacity:1; 
stroke-linecap:round; stroke-linejoin:round;">
<circle cx="50264000.000000" cy="14287500.000000" r="939800.000000" /> 
</g>
<g style="fill:#000000; fill-opacity:1.0; 
stroke:#000000; stroke-width:21200.000000; stroke-opacity:1; 
stroke-linecap:round; stroke-linejoin:round;">
</g>
<g style="fill:#000000; fill-opacity:1.0; 
stroke:#000000; stroke-width:1879600.000000; stroke-opacity:1; 
stroke-linecap:round; stroke-linejoin:round;">
</g>
<g style="fill:#000000; fill-opacity:0.0; 
stroke:#000000; stroke-width:1879600.000000; stroke-opacity:1; 
stroke-linecap:round; stroke-linejoin:round;">
<path d="M48105000 14287500
L49883000 14287500
" />
</g>
<g style="fill:#000000; fill-opacity:1.0; 
stroke:#000000; stroke-width:1.000000; stroke-opacity:1; 
stroke-linecap:round; stroke-linejoin:round;">
<circle cx="50264000.000000" cy="16827500.000000" r="939800.000000" /> 
</g>
<g style="fill:#000000; fill-opacity:1.0; 
stroke:#000000; stroke-width:21200.000000; stroke-opacity:1; 
stroke-linecap:round; stroke-linejoin:round;">
</g>
<g style="fill:#000000; fill-opacity:1.0; 
stroke:#000000; stroke-width:1879600.000000; stroke-opacity:1; 
stroke-linecap:round; stroke-linejoin:round;">
</g>
<g style="fill:#000000; fill-opacity:0.0; 
stroke:#000000; stroke-width:1879600.000000; stroke-opacity:1; 
stroke-linecap:round; stroke-linejoin:round;">
<path d="M48105000 16827500
L49883000 16827500
" />
</g>
<g style="fill:#000000; fill-opacity:1.0; 
stroke:#000000; stroke-width:1.000000; stroke-opacity:1; 
stroke-linecap:round; stroke-linejoin:round;">
<circle cx="50264000.000000" cy="19367500.000000" r="939800.000000" /> 
</g>
<g style="fill:#000000; fill-opacity:1.0; 
stroke:#000000; stroke-width:21200.000000; stroke-opacity:1; 
stroke-linecap:round; stroke-linejoin:round;">
</g>
<g style="fill:#000000; fill-opacity:1.0; 
stroke:#000000; stroke-width:1879600.000000; stroke-opacity:1; 
stroke-linecap:round; stroke-linejoin:round;">
</g>
<g style="fill:#000000; fill-opacity:0.0; 
stroke:#000000; stroke-width:1879600.000000; stroke-opacity:1; 
stroke-linecap:round; stroke-linejoin:round;">
<path d="M48105000 19367500
L49883000 19367500
" />
</g>
<g style="fill:#000000; fill-opacity:1.0; 
stroke:#000000; stroke-width:1.000000; stroke-opacity:1; 
stroke-linecap:round; stroke-linejoin:round;">
<circle cx="50264000.000000" cy="21907500.000000" r="939800.000000" /> 
</g>
<g style="fill:#000000; fill-opacity:1.0; 
stroke:#000000; stroke-width:21200.000000; stroke-opacity:1; 
stroke-linecap:round; stroke-linejoin:round;">
</g>
<g style="fill:#000000; fill-opacity:1.0; 
stroke:#000000; stroke-width:1879600.000000; stroke-opacity:1; 
stroke-linecap:round; stroke-linejoin:round;">
</g>
<g style="fill:#000000; fill-opacity:0.0; 
stroke:#000000; stroke-width:1879600.000000; stroke-opacity:1; 
stroke-linecap:round; stroke-linejoin:round;">
<path d="M48105000 21907500
L49883000 21907500
" />
</g>
<g >
</g>
<g style="fill:#000000; fill-opacity:0.0; 
stroke:#000000; stroke-width:1879600.000000; stroke-opacity:1; 
stroke-linecap:round; stroke-linejoin:round;">
</g>
<g style="fill:#000000; fill-opacity:1.0; 
stroke:#000000; stroke-width:1.000000; stroke-opacity:1; 
stroke-linecap:round; stroke-linejoin:round;">
<circle cx="63380000.000000" cy="50764000.000000" r="1000000.000000" /> 
</g>
<g style="fill:#000000; fill-opacity:1.0; 
stroke:#000000; stroke-width:21200.000000; stroke-opacity:1; 
stroke-linecap:round; stroke-linejoin:round;">
</g>
<g style="fill:#000000; fill-opacity:1.0; 
stroke:#000000; stroke-width:1.000000; stroke-opacity:1; 
stroke-linecap:round; stroke-linejoin:round;">
<circle cx="56880000.000000" cy="50764000.000000" r="1000000.000000" /> 
</g>
<g style="fill:#000000; fill-opacity:1.0; 
stroke:#000000; stroke-width:21200.000000; stroke-opacity:1; 
stroke-linecap:round; stroke-linejoin:round;">
</g>
<g style="fill:#000000; fill-opacity:1.0; 
stroke:#000000; stroke-width:1.000000; stroke-opacity:1; 
stroke-linecap:round; stroke-linejoin:round;">
<circle cx="56880000.000000" cy="46264000.000000" r="1000000.000000" /> 
</g>
<g style="fill:#000000; fill-opacity:1.0; 
stroke:#000000; stroke-width:21200.000000; stroke-opacity:1; 
stroke-linecap:round; stroke-linejoin:round;">
</g>
<g style="fill:#000000; fill-opacity:1.0; 
stroke:#000000; stroke-width:1.000000; stroke-opacity:1; 
stroke-linecap:round; stroke-linejoin:round;">
<circle cx="63380000.000000" cy="46264000.000000" r="1000000.000000" /> 
</g>
<g style="fill:#000000; fill-opacity:1.0; 
stroke:#000000; stroke-width:21200.000000; stroke-opacity:1; 
stroke-linecap:round; stroke-linejoin:round;">
</g>
<g >
</g>
<g style="fill:#000000; fill-opacity:1.0; 
stroke:#000000; stroke-width:21200.000000; stroke-opacity:1; 
stroke-linecap:round; stroke-linejoin:round;">
</g>
<g style="fill:#000000; fill-opacity:1.0; 
stroke:#000000; stroke-width:1.000000; stroke-opacity:1; 
stroke-linecap:round; stroke-linejoin:round;">
<path style="fill:#000000; fill-opacity:1.0; 
stroke:#000000; stroke-width:1.000000; stroke-opacity:1; 
stroke-linecap:round; stroke-linejoin:round;fill-rule:evenodd;"
d="M 12327900.000000,7256000.000000
12330800.000000,7241420.000000
12339059.000000,7229059.000000
12351420.000000,7220800.000000
12366000.000000,7217900.000000
12866000.000000,7217900.000000
12880580.000000,7220800.000000
12892941.000000,7229059.000000
12901200.000000,7241420.000000
12904100.000000,7256000.000000
12904100.000000,9056000.000000
12901200.000000,9070580.000000
12892941.000000,9082941.000000
12880580.000000,9091200.000000
12866000.000000,9094100.000000
12366000.000000,9094100.000000
12351420.000000,9091200.000000
12339059.000000,9082941.000000
12330800.000000,9070580.000000
12327900.000000,9056000.000000
Z" /> 
<path style="fill:#000000; fill-opacity:1.0; 
stroke:#000000; stroke-width:1.000000; stroke-opacity:1; 
stroke-linecap:round; stroke-linejoin:round;fill-rule:evenodd;"
d="M 13227900.000000,7256000.000000
13230800.000000,7241420.000000
13239059.000000,7229059.000000
13251420.000000,7220800.000000
13266000.000000,7217900.000000
13766000.000000,7217900.000000
13780580.000000,7220800.000000
13792941.000000,7229059.000000
13801200.000000,7241420.000000
13804100.000000,7256000.000000
13804100.000000,9056000.000000
13801200.000000,9070580.000000
13792941.000000,9082941.000000
13780580.000000,9091200.000000
13766000.000000,9094100.000000
13266000.000000,9094100.000000
13251420.000000,9091200.000000
13239059.000000,9082941.000000
13230800.000000,9070580.000000
13227900.000000,9056000.000000
Z" /> 
<path style="fill:#000000; fill-opacity:1.0; 
stroke:#000000; stroke-width:1.000000; stroke-opacity:1; 
stroke-linecap:round; stroke-linejoin:round;fill-rule:evenodd;"
d="M 14127900.000000,7256000.000000
14130800.000000,7241420.000000
14139059.000000,7229059.000000
14151420.000000,7220800.000000
14166000.000000,7217900.000000
14666000.000000,7217900.000000
14680580.000000,7220800.000000
14692941.000000,7229059.000000
14701200.000000,7241420.000000
14704100.000000,7256000.000000
14704100.000000,9056000.000000
14701200.000000,9070580.000000
14692941.000000,9082941.000000
14680580.000000,9091200.000000
14666000.000000,9094100.000000
14166000.000000,9094100.000000
14151420.000000,9091200.000000
14139059.000000,9082941.000000
14130800.000000,9070580.000000
14127900.000000,9056000.000000
Z" /> 
<path style="fill:#000000; fill-opacity:1.0; 
stroke:#000000; stroke-width:1.000000; stroke-opacity:1; 
stroke-linecap:round; stroke-linejoin:round;fill-rule:evenodd;"
d="M 15027900.000000,7256000.000000
15030800.000000,7241420.000000
15039059.000000,7229059.000000
15051420.000000,7220800.000000
15066000.000000,7217900.000000
15566000.000000,7217900.000000
15580580.000000,7220800.000000
15592941.000000,7229059.000000
15601200.000000,7241420.000000
15604100.000000,7256000.000000
15604100.000000,9056000.000000
15601200.000000,9070580.000000
15592941.000000,9082941.000000
15580580.000000,9091200.000000
15566000.000000,9094100.000000
15066000.000000,9094100.000000
15051420.000000,9091200.000000
15039059.000000,9082941.000000
15030800.000000,9070580.000000
15027900.000000,9056000.000000
Z" /> 
<path style="fill:#000000; fill-opacity:1.0; 
stroke:#000000; stroke-width:1.000000; stroke-opacity:1; 
stroke-linecap:round; stroke-linejoin:round;fill-rule:evenodd;"
d="M 15927900.000000,7256000.000000
15930800.000000,7241420.000000
15939059.000000,7229059.000000
15951420.000000,7220800.000000
15966000.000000,7217900.000000
16466000.000000,7217900.000000
16480580.000000,7220800.000000
16492941.000000,7229059.000000
16501200.000000,7241420.000000
16504100.000000,7256000.000000
16504100.000000,9056000.000000
16501200.000000,9070580.000000
16492941.000000,9082941.000000
16480580.000000,9091200.000000
16466000.000000,9094100.000000
15966000.000000,9094100.000000
15951420.000000,9091200.000000
15939059.000000,9082941.000000
15930800.000000,9070580.000000
15927900.000000,9056000.000000
Z" /> 
<path style="fill:#000000; fill-opacity:1.0; 
stroke:#000000; stroke-width:1.000000; stroke-opacity:1; 
stroke-linecap:round; stroke-linejoin:round;fill-rule:evenodd;"
d="M 16827900.000000,7256000.000000
16830800.000000,7241420.000000
16839059.000000,7229059.000000
16851420.000000,7220800.000000
16866000.000000,7217900.000000
17366000.000000,7217900.000000
17380580.000000,7220800.000000
17392941.000000,7229059.000000
17401200.000000,7241420.000000
17404100.000000,7256000.000000
17404100.000000,9056000.000000
17401200.000000,9070580.000000
17392941.000000,9082941.000000
17380580.000000,9091200.000000
17366000.000000,9094100.000000
16866000.000000,9094100.000000
16851420.000000,9091200.000000
16839059.000000,9082941.000000
16830800.000000,9070580.000000
16827900.000000,9056000.000000
Z" /> 
<path style="fill:#000000; fill-opacity:1.0; 
stroke:#000000; stroke-width:1.000000; stroke-opacity:1; 
stroke-linecap:round; stroke-linejoin:round;fill-rule:evenodd;"
d="M 17727900.000000,7256000.000000
17730800.000000,7241420.000000
17739059.000000,7229059.000000
17751420.000000,7220800.000000
17766000.000000,7217900.000000
18266000.000000,7217900.000000
18280580.000000,7220800.000000
18292941.000000,7229059.000000
18301200.000000,7241420.000000
18304100.000000,7256000.000000
18304100.000000,9056000.000000
18301200.000000,9070580.000000
18292941.000000,9082941.000000
18280580.000000,9091200.000000
18266000.000000,9094100.000000
17766000.000000,9094100.000000
17751420.000000,9091200.000000
17739059.000000,9082941.000000
17730800.000000,9070580.000000
17727900.000000,9056000.000000
Z" /> 
<path style="fill:#000000; fill-opacity:1.0; 
stroke:#000000; stroke-width:1.000000; stroke-opacity:1; 
stroke-linecap:round; stroke-linejoin:round;fill-rule:evenodd;"
d="M 18627900.000000,7256000.000000
18630800.000000,7241420.000000
18639059.000000,7229059.000000
18651420.000000,7220800.000000
18666000.000000,7217900.000000
19166000.000000,7217900.000000
19180580.000000,7220800.000000
19192941.000000,7229059.000000
19201200.000000,7241420.000000
19204100.000000,7256000.000000
19204100.000000,9056000.000000
19201200.000000,9070580.000000
19192941.000000,9082941.000000
19180580.000000,9091200.000000
19166000.000000,9094100.000000
18666000.000000,9094100.000000
18651420.000000,9091200.000000
18639059.000000,9082941.000000
18630800.000000,9070580.000000
18627900.000000,9056000.000000
Z" /> 
<path style="fill:#000000; fill-opacity:1.0; 
stroke:#000000; stroke-width:1.000000; stroke-opacity:1; 
stroke-linecap:round; stroke-linejoin:round;fill-rule:evenodd;"
d="M 19527900.000000,7256000.000000
19530800.000000,7241420.000000
19539059.000000,7229059.000000
19551420.000000,7220800.000000
19566000.000000,7217900.000000
20066000.000000,7217900.000000
20080580.000000,7220800.000000
20092941.000000,7229059.000000
20101200.000000,7241420.000000
20104100.000000,7256000.000000
20104100.000000,9056000.000000
20101200.000000,9070580.000000
20092941.000000,9082941.000000
20080580.000000,9091200.000000
20066000.000000,9094100.000000
19566000.000000,9094100.000000
19551420.000000,9091200.000000
19539059.000000,9082941.000000
19530800.000000,9070580.000000
19527900.000000,9056000.000000
Z" /> 
<path style="fill:#000000; fill-opacity:1.0; 
stroke:#000000; stroke-width:1.000000; stroke-opacity:1; 
stroke-linecap:round; stroke-linejoin:round;fill-rule:evenodd;"
d="M 20427900.000000,7256000.000000
20430800.000000,7241420.000000
20439059.000000,7229059.000000
20451420.000000,7220800.000000
20466000.000000,7217900.000000
20966000.000000,7217900.000000
20980580.000000,7220800.000000
20992941.000000,7229059.000000
21001200.000000,7241420.000000
21004100.000000,7256000.000000
21004100.000000,9056000.000000
21001200.000000,9070580.000000
20992941.000000,9082941.000000
20980580.000000,9091200.000000
20966000.000000,9094100.000000
20466000.000000,9094100.000000
20451420.000000,9091200.000000
20439059.000000,9082941.000000
20430800.000000,9070580.000000
20427900.000000,9056000.000000
Z" /> 
<path style="fill:#000000; fill-opacity:1.0; 
stroke:#000000; stroke-width:1.000000; stroke-opacity:1; 
stroke-linecap:round; stroke-linejoin:round;fill-rule:evenodd;"
d="M 21327900.000000,7256000.000000
21330800.000000,7241420.000000
21339059.000000,7229059.000000
21351420.000000,7220800.000000
21366000.000000,7217900.000000
21866000.000000,7217900.000000
21880580.000000,7220800.000000
21892941.000000,7229059.000000
21901200.000000,7241420.000000
21904100.000000,7256000.000000
21904100.000000,9056000.000000
21901200.000000,9070580.000000
21892941.000000,9082941.000000
21880580.000000,9091200.000000
21866000.000000,9094100.000000
21366000.000000,9094100.000000
21351420.000000,9091200.000000
21339059.000000,9082941.000000
21330800.000000,9070580.000000
21327900.000000,9056000.000000
Z" /> 
<path style="fill:#000000; fill-opacity:1.0; 
stroke:#000000; stroke-width:1.000000; stroke-opacity:1; 
stroke-linecap:round; stroke-linejoin:round;fill-rule:evenodd;"
d="M 22227900.000000,7256000.000000
22230800.000000,7241420.000000
22239059.000000,7229059.000000
22251420.000000,7220800.000000
22266000.000000,7217900.000000
22766000.000000,7217900.000000
22780580.000000,7220800.000000
22792941.000000,7229059.000000
22801200.000000,7241420.000000
22804100.000000,7256000.000000
22804100.000000,9056000.000000
22801200.000000,9070580.000000
22792941.000000,9082941.000000
22780580.000000,9091200.000000
22766000.000000,9094100.000000
22266000.000000,9094100.000000
22251420.000000,9091200.000000
22239059.000000,9082941.000000
22230800.000000,9070580.000000
22227900.000000,9056000.000000
Z" /> 
<path style="fill:#000000; fill-opacity:1.0; 
stroke:#000000; stroke-width:1.000000; stroke-opacity:1; 
stroke-linecap:round; stroke-linejoin:round;fill-rule:evenodd;"
d="M 23127900.000000,7256000.000000
23130800.000000,7241420.000000
23139059.000000,7229059.000000
23151420.000000,7220800.000000
23166000.000000,7217900.000000
23666000.000000,7217900.000000
23680580.000000,7220800.000000
23692941.000000,7229059.000000
23701200.000000,7241420.000000
23704100.000000,7256000.000000
23704100.000000,9056000.000000
23701200.000000,9070580.000000
23692941.000000,9082941.000000
23680580.000000,9091200.000000
23666000.000000,9094100.000000
23166000.000000,9094100.000000
23151420.000000,9091200.000000
23139059.000000,9082941.000000
23130800.000000,9070580.000000
23127900.000000,9056000.000000
Z" /> 
<path style="fill:#000000; fill-opacity:1.0; 
stroke:#000000; stroke-width:1.000000; stroke-opacity:1; 
stroke-linecap:round; stroke-linejoin:round;fill-rule:evenodd;"
d="M 24027900.000000,7256000.000000
24030800.000000,7241420.000000
24039059.000000,7229059.000000
24051420.000000,7220800.000000
24066000.000000,7217900.000000
24566000.000000,7217900.000000
24580580.000000,7220800.000000
24592941.000000,7229059.000000
24601200.000000,7241420.000000
24604100.000000,7256000.000000
24604100.000000,9056000.000000
24601200.000000,9070580.000000
24592941.000000,9082941.000000
24580580.000000,9091200.000000
24566000.000000,9094100.000000
24066000.000000,9094100.000000
24051420.000000,9091200.000000
24039059.000000,9082941.000000
24030800.000000,9070580.000000
24027900.000000,9056000.000000
Z" /> 
<path style="fill:#000000; fill-opacity:1.0; 
stroke:#000000; stroke-width:1.000000; stroke-opacity:1; 
stroke-linecap:round; stroke-linejoin:round;fill-rule:evenodd;"
d="M 24927900.000000,7256000.000000
24930800.000000,7241420.000000
24939059.000000,7229059.000000
24951420.000000,7220800.000000
24966000.000000,7217900.000000
25466000.000000,7217900.000000
25480580.000000,7220800.000000
25492941.000000,7229059.000000
25501200.000000,7241420.000000
25504100.000000,7256000.000000
25504100.000000,9056000.000000
25501200.000000,9070580.000000
25492941.000000,9082941.000000
25480580.000000,9091200.000000
25466000.000000,9094100.000000
24966000.000000,9094100.000000
24951420.000000,9091200.000000
24939059.000000,9082941.000000
24930800.000000,9070580.000000
24927900.000000,9056000.000000
Z" /> 
<path style="fill:#000000; fill-opacity:1.0; 
stroke:#000000; stroke-width:1.000000; stroke-opacity:1; 
stroke-linecap:round; stroke-linejoin:round;fill-rule:evenodd;"
d="M 25827900.000000,7256000.000000
25830800.000000,7241420.000000
25839059.000000,7229059.000000
25851420.000000,7220800.000000
25866000.000000,7217900.000000
26366000.000000,7217900.000000
26380580.000000,7220800.000000
26392941.000000,7229059.000000
26401200.000000,7241420.000000
26404100.000000,7256000.000000
26404100.000000,9056000.000000
26401200.000000,9070580.000000
26392941.000000,9082941.000000
26380580.000000,9091200.000000
26366000.000000,9094100.000000
25866000.000000,9094100.000000
25851420.000000,9091200.000000
25839059.000000,9082941.000000
25830800.000000,9070580.000000
25827900.000000,9056000.000000
Z" /> 
<path style="fill:#000000; fill-opacity:1.0; 
stroke:#000000; stroke-width:1.000000; stroke-opacity:1; 
stroke-linecap:round; stroke-linejoin:round;fill-rule:evenodd;"
d="M 26727900.000000,7256000.000000
26730800.000000,7241420.000000
26739059.000000,7229059.000000
26751420.000000,7220800.000000
26766000.000000,7217900.000000
27266000.000000,7217900.000000
27280580.000000,7220800.000000
27292941.000000,7229059.000000
27301200.000000,7241420.000000
27304100.000000,7256000.000000
27304100.000000,9056000.000000
27301200.000000,9070580.000000
27292941.000000,9082941.000000
27280580.000000,9091200.000000
27266000.000000,9094100.000000
26766000.000000,9094100.000000
26751420.000000,9091200.000000
26739059.000000,9082941.000000
26730800.000000,9070580.000000
26727900.000000,9056000.000000
Z" /> 
<path style="fill:#000000; fill-opacity:1.0; 
stroke:#000000; stroke-width:1.000000; stroke-opacity:1; 
stroke-linecap:round; stroke-linejoin:round;fill-rule:evenodd;"
d="M 27627900.000000,7256000.000000
27630800.000000,7241420.000000
27639059.000000,7229059.000000
27651420.000000,7220800.000000
27666000.000000,7217900.000000
28166000.000000,7217900.000000
28180580.000000,7220800.000000
28192941.000000,7229059.000000
28201200.000000,7241420.000000
28204100.000000,7256000.000000
28204100.000000,9056000.000000
28201200.000000,9070580.000000
28192941.000000,9082941.000000
28180580.000000,9091200.000000
28166000.000000,9094100.000000
27666000.000000,9094100.000000
27651420.000000,9091200.000000
27639059.000000,9082941.000000
27630800.000000,9070580.000000
27627900.000000,9056000.000000
Z" /> 
<path style="fill:#000000; fill-opacity:1.0; 
stroke:#000000; stroke-width:1.000000; stroke-opacity:1; 
stroke-linecap:round; stroke-linejoin:round;fill-rule:evenodd;"
d="M 28527900.000000,7256000.000000
28530800.000000,7241420.000000
28539059.000000,7229059.000000
28551420.000000,7220800.000000
28566000.000000,7217900.000000
29066000.000000,7217900.000000
29080580.000000,7220800.000000
29092941.000000,7229059.000000
29101200.000000,7241420.000000
29104100.000000,7256000.000000
29104100.000000,9056000.000000
29101200.000000,9070580.000000
29092941.000000,9082941.000000
29080580.000000,9091200.000000
29066000.000000,9094100.000000
28566000.000000,9094100.000000
28551420.000000,9091200.000000
28539059.000000,9082941.000000
28530800.000000,9070580.000000
28527900.000000,9056000.000000
Z" /> 
<path style="fill:#000000; fill-opacity:1.0; 
stroke:#000000; stroke-width:1.000000; stroke-opacity:1; 
stroke-linecap:round; stroke-linejoin:round;fill-rule:evenodd;"
d="M 29427900.000000,7256000.000000
29430800.000000,7241420.000000
29439059.000000,7229059.000000
29451420.000000,7220800.000000
29466000.000000,7217900.000000
29966000.000000,7217900.000000
29980580.000000,7220800.000000
29992941.000000,7229059.000000
30001200.000000,7241420.000000
30004100.000000,7256000.000000
30004100.000000,9056000.000000
30001200.000000,9070580.000000
29992941.000000,9082941.000000
29980580.000000,9091200.000000
29966000.000000,9094100.000000
29466000.000000,9094100.000000
29451420.000000,9091200.000000
29439059.000000,9082941.000000
29430800.000000,9070580.000000
29427900.000000,9056000.000000
Z" /> 
<path style="fill:#000000; fill-opacity:1.0; 
stroke:#000000; stroke-width:1.000000; stroke-opacity:1; 
stroke-linecap:round; stroke-linejoin:round;fill-rule:evenodd;"
d="M 30327900.000000,7256000.000000
30330800.000000,7241420.000000
30339059.000000,7229059.000000
30351420.000000,7220800.000000
30366000.000000,7217900.000000
30866000.000000,7217900.000000
30880580.000000,7220800.000000
30892941.000000,7229059.000000
30901200.000000,7241420.000000
30904100.000000,7256000.000000
30904100.000000,9056000.000000
30901200.000000,9070580.000000
30892941.000000,9082941.000000
30880580.000000,9091200.000000
30866000.000000,9094100.000000
30366000.000000,9094100.000000
30351420.000000,9091200.000000
30339059.000000,9082941.000000
30330800.000000,9070580.000000
30327900.000000,9056000.000000
Z" /> 
<path style="fill:#000000; fill-opacity:1.0; 
stroke:#000000; stroke-width:1.000000; stroke-opacity:1; 
stroke-linecap:round; stroke-linejoin:round;fill-rule:evenodd;"
d="M 31227900.000000,7256000.000000
31230800.000000,7241420.000000
31239059.000000,7229059.000000
31251420.000000,7220800.000000
31266000.000000,7217900.000000
31766000.000000,7217900.000000
31780580.000000,7220800.000000
31792941.000000,7229059.000000
31801200.000000,7241420.000000
31804100.000000,7256000.000000
31804100.000000,9056000.000000
31801200.000000,9070580.000000
31792941.000000,9082941.000000
31780580.000000,9091200.000000
31766000.000000,9094100.000000
31266000.000000,9094100.000000
31251420.000000,9091200.000000
31239059.000000,9082941.000000
31230800.000000,9070580.000000
31227900.000000,9056000.000000
Z" /> 
<path style="fill:#000000; fill-opacity:1.0; 
stroke:#000000; stroke-width:1.000000; stroke-opacity:1; 
stroke-linecap:round; stroke-linejoin:round;fill-rule:evenodd;"
d="M 32127900.000000,7256000.000000
32130800.000000,7241420.000000
32139059.000000,7229059.000000
32151420.000000,7220800.000000
32166000.000000,7217900.000000
32666000.000000,7217900.000000
32680580.000000,7220800.000000
32692941.000000,7229059.000000
32701200.000000,7241420.000000
32704100.000000,7256000.000000
32704100.000000,9056000.000000
32701200.000000,9070580.000000
32692941.000000,9082941.000000
32680580.000000,9091200.000000
32666000.000000,9094100.000000
32166000.000000,9094100.000000
32151420.000000,9091200.000000
32139059.000000,9082941.000000
32130800.000000,9070580.000000
32127900.000000,9056000.000000
Z" /> 
<path style="fill:#000000; fill-opacity:1.0; 
stroke:#000000; stroke-width:1.000000; stroke-opacity:1; 
stroke-linecap:round; stroke-linejoin:round;fill-rule:evenodd;"
d="M 33027900.000000,7256000.000000
33030800.000000,7241420.000000
33039059.000000,7229059.000000
33051420.000000,7220800.000000
33066000.000000,7217900.000000
33566000.000000,7217900.000000
33580580.000000,7220800.000000
33592941.000000,7229059.000000
33601200.000000,7241420.000000
33604100.000000,7256000.000000
33604100.000000,9056000.000000
33601200.000000,9070580.000000
33592941.000000,9082941.000000
33580580.000000,9091200.000000
33566000.000000,9094100.000000
33066000.000000,9094100.000000
33051420.000000,9091200.000000
33039059.000000,9082941.000000
33030800.000000,9070580.000000
33027900.000000,9056000.000000
Z" /> 
<path style="fill:#000000; fill-opacity:1.0; 
stroke:#000000; stroke-width:1.000000; stroke-opacity:1; 
stroke-linecap:round; stroke-linejoin:round;fill-rule:evenodd;"
d="M 33927900.000000,7256000.000000
33930800.000000,7241420.000000
33939059.000000,7229059.000000
33951420.000000,7220800.000000
33966000.000000,7217900.000000
34466000.000000,7217900.000000
34480580.000000,7220800.000000
34492941.000000,7229059.000000
34501200.000000,7241420.000000
34504100.000000,7256000.000000
34504100.000000,9056000.000000
34501200.000000,9070580.000000
34492941.000000,9082941.000000
34480580.000000,9091200.000000
34466000.000000,9094100.000000
33966000.000000,9094100.000000
33951420.000000,9091200.000000
33939059.000000,9082941.000000
33930800.000000,9070580.000000
33927900.000000,9056000.000000
Z" /> 
<path style="fill:#000000; fill-opacity:1.0; 
stroke:#000000; stroke-width:1.000000; stroke-opacity:1; 
stroke-linecap:round; stroke-linejoin:round;fill-rule:evenodd;"
d="M 34827900.000000,7256000.000000
34830800.000000,7241420.000000
34839059.000000,7229059.000000
34851420.000000,7220800.000000
34866000.000000,7217900.000000
35366000.000000,7217900.000000
35380580.000000,7220800.000000
35392941.000000,7229059.000000
35401200.000000,7241420.000000
35404100.000000,7256000.000000
35404100.000000,9056000.000000
35401200.000000,9070580.000000
35392941.000000,9082941.000000
35380580.000000,9091200.000000
35366000.000000,9094100.000000
34866000.000000,9094100.000000
34851420.000000,9091200.000000
34839059.000000,9082941.000000
34830800.000000,9070580.000000
34827900.000000,9056000.000000
Z" /> 
<path style="fill:#000000; fill-opacity:1.0; 
stroke:#000000; stroke-width:1.000000; stroke-opacity:1; 
stroke-linecap:round; stroke-linejoin:round;fill-rule:evenodd;"
d="M 35727900.000000,7256000.000000
35730800.000000,7241420.000000
35739059.000000,7229059.000000
35751420.000000,7220800.000000
35766000.000000,7217900.000000
36266000.000000,7217900.000000
36280580.000000,7220800.000000
36292941.000000,7229059.000000
36301200.000000,7241420.000000
36304100.000000,7256000.000000
36304100.000000,9056000.000000
36301200.000000,9070580.000000
36292941.000000,9082941.000000
36280580.000000,9091200.000000
36266000.000000,9094100.000000
35766000.000000,9094100.000000
35751420.000000,9091200.000000
35739059.000000,9082941.000000
35730800.000000,9070580.000000
35727900.000000,9056000.000000
Z" /> 
</g>
<g >
</g>
<g style="fill:#000000; fill-opacity:1.0; 
stroke:#000000; stroke-width:1.000000; stroke-opacity:1; 
stroke-linecap:round; stroke-linejoin:round;">
<circle cx="7679000.000000" cy="7493000.000000" r="1350000.000000" /> 
</g>
<g style="fill:#000000; fill-opacity:1.0; 
stroke:#000000; stroke-width:21200.000000; stroke-opacity:1; 
stroke-linecap:round; stroke-linejoin:round;">
</g>
<g >
</g>
<g style="fill:#000000; fill-opacity:1.0; 
stroke:#000000; stroke-width:21200.000000; stroke-opacity:1; 
stroke-linecap:round; stroke-linejoin:round;">
</g>
<g style="fill:#000000; fill-opacity:1.0; 
stroke:#000000; stroke-width:1.000000; stroke-opacity:1; 
stroke-linecap:round; stroke-linejoin:round;">
<circle cx="42604000.000000" cy="7493000.000000" r="1350000.000000" /> 
</g>
<g style="fill:#000000; fill-opacity:1.0; 
stroke:#000000; stroke-width:21200.000000; stroke-opacity:1; 
stroke-linecap:round; stroke-linejoin:round;">
</g>
<g >
</g>
<g style="fill:#000000; fill-opacity:1.0; 
stroke:#000000; stroke-width:21200.000000; stroke-opacity:1; 
stroke-linecap:round; stroke-linejoin:round;">
</g>
<g style="fill:#000000; fill-opacity:1.0; 
stroke:#000000; stroke-width:1.000000; stroke-opacity:1; 
stroke-linecap:round; stroke-linejoin:round;">
<path style="fill:#000000; fill-opacity:1.0; 
stroke:#000000; stroke-width:1.000000; stroke-opacity:1; 
stroke-linecap:round; stroke-linejoin:round;fill-rule:evenodd;"
d="M 44821217.000000,47989999.000000
44821217.000000,45990001.000000
46821215.000000,45990001.000000
46821215.000000,47989999.000000
Z" /> 
<circle cx="50821216.000000" cy="46990000.000000" r="1000000.000000" /> 
</g>
<g style="fill:#000000; fill-opacity:1.0; 
stroke:#000000; stroke-width:21200.000000; stroke-opacity:1; 
stroke-linecap:round; stroke-linejoin:round;">
</g>
<g >
</g>
<g style="fill:#000000; fill-opacity:1.0; 
stroke:#000000; stroke-width:21200.000000; stroke-opacity:1; 
stroke-linecap:round; stroke-linejoin:round;">
</g>
<g style="fill:#000000; fill-opacity:1.0; 
stroke:#000000; stroke-width:1.000000; stroke-opacity:1; 
stroke-linecap:round; stroke-linejoin:round;">
<circle cx="63380000.000000" cy="35524000.000000" r="1000000.000000" /> 
</g>
<g style="fill:#000000; fill-opacity:1.0; 
stroke:#000000; stroke-width:21200.000000; stroke-opacity:1; 
stroke-linecap:round; stroke-linejoin:round;">
</g>
<g style="fill:#000000; fill-opacity:1.0; 
stroke:#000000; stroke-width:1.000000; stroke-opacity:1; 
stroke-linecap:round; stroke-linejoin:round;">
<circle cx="56880000.000000" cy="35524000.000000" r="1000000.000000" /> 
</g>
<g style="fill:#000000; fill-opacity:1.0; 
stroke:#000000; stroke-width:21200.000000; stroke-opacity:1; 
stroke-linecap:round; stroke-linejoin:round;">
</g>
<g style="fill:#000000; fill-opacity:1.0; 
stroke:#000000; stroke-width:1.000000; stroke-opacity:1; 
stroke-linecap:round; stroke-linejoin:round;">
<circle cx="56880000.000000" cy="31024000.000000" r="1000000.000000" /> 
</g>
<g style="fill:#000000; fill-opacity:1.0; 
stroke:#000000; stroke-width:21200.000000; stroke-opacity:1; 
stroke-linecap:round; stroke-linejoin:round;">
</g>
<g style="fill:#000000; fill-opacity:1.0; 
stroke:#000000; stroke-width:1.000000; stroke-opacity:1; 
stroke-linecap:round; stroke-linejoin:round;">
<circle cx="63380000.000000" cy="31024000.000000" r="1000000.000000" /> 
</g>
<g style="fill:#000000; fill-opacity:1.0; 
stroke:#000000; stroke-width:21200.000000; stroke-opacity:1; 
stroke-linecap:round; stroke-linejoin:round;">
</g>
<g >
</g>
<g style="fill:#000000; fill-opacity:1.0; 
stroke:#000000; stroke-width:21200.000000; stroke-opacity:1; 
stroke-linecap:round; stroke-linejoin:round;">
</g>
<g style="fill:#000000; fill-opacity:1.0; 
stroke:#000000; stroke-width:1.000000; stroke-opacity:1; 
stroke-linecap:round; stroke-linejoin:round;">
<circle cx="39429000.000000" cy="51943000.000000" r="1350000.000000" /> 
</g>
<g style="fill:#000000; fill-opacity:1.0; 
stroke:#000000; stroke-width:21200.000000; stroke-opacity:1; 
stroke-linecap:round; stroke-linejoin:round;">
</g>
<g >
</g>
<g style="fill:#000000; fill-opacity:1.0; 
stroke:#000000; stroke-width:21200.000000; stroke-opacity:1; 
stroke-linecap:round; stroke-linejoin:round;">
</g>
<g style="fill:#000000; fill-opacity:1.0; 
stroke:#000000; stroke-width:1.000000; stroke-opacity:1; 
stroke-linecap:round; stroke-linejoin:round;">
<circle cx="7679000.000000" cy="29718000.000000" r="1350000.000000" /> 
</g>
<g style="fill:#000000; fill-opacity:1.0; 
stroke:#000000; stroke-width:21200.000000; stroke-opacity:1; 
stroke-linecap:round; stroke-linejoin:round;">
</g>
<g >
</g>
<g style="fill:#000000; fill-opacity:1.0; 
stroke:#000000; stroke-width:21200.000000; stroke-opacity:1; 
stroke-linecap:round; stroke-linejoin:round;">
</g>
<g style="fill:#000000; fill-opacity:1.0; 
stroke:#000000; stroke-width:1.000000; stroke-opacity:1; 
stroke-linecap:round; stroke-linejoin:round;">
<circle cx="65504000.000000" cy="21907500.000000" r="939800.000000" /> 
</g>
<g style="fill:#000000; fill-opacity:1.0; 
stroke:#000000; stroke-width:21200.000000; stroke-opacity:1; 
stroke-linecap:round; stroke-linejoin:round;">
</g>
<g style="fill:#000000; fill-opacity:1.0; 
stroke:#000000; stroke-width:1879600.000000; stroke-opacity:1; 
stroke-linecap:round; stroke-linejoin:round;">
</g>
<g style="fill:#000000; fill-opacity:0.0; 
stroke:#000000; stroke-width:1879600.000000; stroke-opacity:1; 
stroke-linecap:round; stroke-linejoin:round;">
<path d="M67663000 21907500
L65885000 21907500
" />
</g>
<g style="fill:#000000; fill-opacity:1.0; 
stroke:#000000; stroke-width:1.000000; stroke-opacity:1; 
stroke-linecap:round; stroke-linejoin:round;">
<circle cx="65504000.000000" cy="19367500.000000" r="939800.000000" /> 
</g>
<g style="fill:#000000; fill-opacity:1.0; 
stroke:#000000; stroke-width:21200.000000; stroke-opacity:1; 
stroke-linecap:round; stroke-linejoin:round;">
</g>
<g style="fill:#000000; fill-opacity:1.0; 
stroke:#000000; stroke-width:1879600.000000; stroke-opacity:1; 
stroke-linecap:round; stroke-linejoin:round;">
</g>
<g style="fill:#000000; fill-opacity:0.0; 
stroke:#000000; stroke-width:1879600.000000; stroke-opacity:1; 
stroke-linecap:round; stroke-linejoin:round;">
<path d="M67663000 19367500
L65885000 19367500
" />
</g>
<g style="fill:#000000; fill-opacity:1.0; 
stroke:#000000; stroke-width:1.000000; stroke-opacity:1; 
stroke-linecap:round; stroke-linejoin:round;">
<circle cx="65504000.000000" cy="16827500.000000" r="939800.000000" /> 
</g>
<g style="fill:#000000; fill-opacity:1.0; 
stroke:#000000; stroke-width:21200.000000; stroke-opacity:1; 
stroke-linecap:round; stroke-linejoin:round;">
</g>
<g style="fill:#000000; fill-opacity:1.0; 
stroke:#000000; stroke-width:1879600.000000; stroke-opacity:1; 
stroke-linecap:round; stroke-linejoin:round;">
</g>
<g style="fill:#000000; fill-opacity:0.0; 
stroke:#000000; stroke-width:1879600.000000; stroke-opacity:1; 
stroke-linecap:round; stroke-linejoin:round;">
<path d="M67663000 16827500
L65885000 16827500
" />
</g>
<g style="fill:#000000; fill-opacity:1.0; 
stroke:#000000; stroke-width:1.000000; stroke-opacity:1; 
stroke-linecap:round; stroke-linejoin:round;">
<circle cx="65504000.000000" cy="14287500.000000" r="939800.000000" /> 
</g>
<g style="fill:#000000; fill-opacity:1.0; 
stroke:#000000; stroke-width:21200.000000; stroke-opacity:1; 
stroke-linecap:round; stroke-linejoin:round;">
</g>
<g style="fill:#000000; fill-opacity:1.0; 
stroke:#000000; stroke-width:1879600.000000; stroke-opacity:1; 
stroke-linecap:round; stroke-linejoin:round;">
</g>
<g style="fill:#000000; fill-opacity:0.0; 
stroke:#000000; stroke-width:1879600.000000; stroke-opacity:1; 
stroke-linecap:round; stroke-linejoin:round;">
<path d="M67663000 14287500
L65885000 14287500
" />
</g>
<g style="fill:#000000; fill-opacity:1.0; 
stroke:#000000; stroke-width:1.000000; stroke-opacity:1; 
stroke-linecap:round; stroke-linejoin:round;">
<circle cx="65504000.000000" cy="11747500.000000" r="939800.000000" /> 
</g>
<g style="fill:#000000; fill-opacity:1.0; 
stroke:#000000; stroke-width:21200.000000; stroke-opacity:1; 
stroke-linecap:round; stroke-linejoin:round;">
</g>
<g style="fill:#000000; fill-opacity:1.0; 
stroke:#000000; stroke-width:1879600.000000; stroke-opacity:1; 
stroke-linecap:round; stroke-linejoin:round;">
</g>
<g style="fill:#000000; fill-opacity:0.0; 
stroke:#000000; stroke-width:1879600.000000; stroke-opacity:1; 
stroke-linecap:round; stroke-linejoin:round;">
<path d="M67663000 11747500
L65885000 11747500
" />
</g>
<g style="fill:#000000; fill-opacity:1.0; 
stroke:#000000; stroke-width:1.000000; stroke-opacity:1; 
stroke-linecap:round; stroke-linejoin:round;">
<circle cx="65504000.000000" cy="9207500.000000" r="939800.000000" /> 
</g>
<g style="fill:#000000; fill-opacity:1.0; 
stroke:#000000; stroke-width:21200.000000; stroke-opacity:1; 
stroke-linecap:round; stroke-linejoin:round;">
</g>
<g style="fill:#000000; fill-opacity:1.0; 
stroke:#000000; stroke-width:1879600.000000; stroke-opacity:1; 
stroke-linecap:round; stroke-linejoin:round;">
</g>
<g style="fill:#000000; fill-opacity:0.0; 
stroke:#000000; stroke-width:1879600.000000; stroke-opacity:1; 
stroke-linecap:round; stroke-linejoin:round;">
<path d="M67663000 9207500
L65885000 9207500
" />
</g>
<g style="fill:#000000; fill-opacity:1.0; 
stroke:#000000; stroke-width:1.000000; stroke-opacity:1; 
stroke-linecap:round; stroke-linejoin:round;">
<circle cx="65504000.000000" cy="6667500.000000" r="939800.000000" /> 
</g>
<g style="fill:#000000; fill-opacity:1.0; 
stroke:#000000; stroke-width:21200.000000; stroke-opacity:1; 
stroke-linecap:round; stroke-linejoin:round;">
</g>
<g style="fill:#000000; fill-opacity:1.0; 
stroke:#000000; stroke-width:1879600.000000; stroke-opacity:1; 
stroke-linecap:round; stroke-linejoin:round;">
</g>
<g style="fill:#000000; fill-opacity:0.0; 
stroke:#000000; stroke-width:1879600.000000; stroke-opacity:1; 
stroke-linecap:round; stroke-linejoin:round;">
<path d="M67663000 6667500
L65885000 6667500
" />
</g>
<g >
</g>
<g style="fill:#000000; fill-opacity:0.0; 
stroke:#000000; stroke-width:1879600.000000; stroke-opacity:1; 
stroke-linecap:round; stroke-linejoin:round;">
</g>
<g style="fill:#000000; fill-opacity:1.0; 
stroke:#000000; stroke-width:1.000000; stroke-opacity:1; 
stroke-linecap:round; stroke-linejoin:round;">
<circle cx="7679000.000000" cy="51943000.000000" r="1350000.000000" /> 
</g>
<g style="fill:#000000; fill-opacity:1.0; 
stroke:#000000; stroke-width:21200.000000; stroke-opacity:1; 
stroke-linecap:round; stroke-linejoin:round;">
</g>
<g >
</g>
<g style="fill:#000000; fill-opacity:1.0; 
stroke:#000000; stroke-width:21200.000000; stroke-opacity:1; 
stroke-linecap:round; stroke-linejoin:round;">
</g>
<g style="fill:#000000; fill-opacity:1.0; 
stroke:#000000; stroke-width:1.000000; stroke-opacity:1; 
stroke-linecap:round; stroke-linejoin:round;">
<circle cx="68004000.000000" cy="51943000.000000" r="1350000.000000" /> 
</g>
<g style="fill:#000000; fill-opacity:1.0; 
stroke:#000000; stroke-width:21200.000000; stroke-opacity:1; 
stroke-linecap:round; stroke-linejoin:round;">
</g>
<g >
</g>
<g style="fill:#000000; fill-opacity:1.0; 
stroke:#000000; stroke-width:21200.000000; stroke-opacity:1; 
stroke-linecap:round; stroke-linejoin:round;">
</g>
<g style="fill:#000000; fill-opacity:1.0; 
stroke:#000000; stroke-width:950000.000000; stroke-opacity:1; 
stroke-linecap:round; stroke-linejoin:round;">
</g>
<g style="fill:#000000; fill-opacity:0.0; 
stroke:#000000; stroke-width:950000.000000; stroke-opacity:1; 
stroke-linecap:round; stroke-linejoin:round;">
<path d="M36542316 35020085
L35492316 35020085
" />
</g>
<g style="fill:#000000; fill-opacity:0.0; 
stroke:#000000; stroke-width:1.000000; stroke-opacity:1; 
stroke-linecap:round; stroke-linejoin:round;">
</g>
<g style="fill:#000000; fill-opacity:1.0; 
stroke:#000000; stroke-width:1.000000; stroke-opacity:1; 
stroke-linecap:round; stroke-linejoin:round;">
<path style="fill:#000000; fill-opacity:1.0; 
stroke:#000000; stroke-width:1.000000; stroke-opacity:1; 
stroke-linecap:round; stroke-linejoin:round;fill-rule:evenodd;"
d="M 38517315.000000,34570086.000000
38517315.000000,35470084.000000
37217317.000000,35470084.000000
37217317.000000,34570086.000000
Z" /> 
</g>
<g >
</g>
<g style="fill:#000000; fill-opacity:1.0; 
stroke:#000000; stroke-width:1.000000; stroke-opacity:1; 
stroke-linecap:round; stroke-linejoin:round;">
<path style="fill:#000000; fill-opacity:1.0; 
stroke:#000000; stroke-width:1.000000; stroke-opacity:1; 
stroke-linecap:round; stroke-linejoin:round;fill-rule:evenodd;"
d="M 32864001.000000,46315999.000000
32864001.000000,44616001.000000
34563999.000000,44616001.000000
34563999.000000,46315999.000000
Z" /> 
<circle cx="33714000.000000" cy="42926000.000000" r="850000.000000" /> 
<circle cx="33714000.000000" cy="40386000.000000" r="850000.000000" /> 
</g>
<g >
</g>
<g style="fill:#000000; fill-opacity:1.0; 
stroke:#000000; stroke-width:1.000000; stroke-opacity:1; 
stroke-linecap:round; stroke-linejoin:round;">
<path style="fill:#000000; fill-opacity:1.0; 
stroke:#000000; stroke-width:1.000000; stroke-opacity:1; 
stroke-linecap:round; stroke-linejoin:round;fill-rule:evenodd;"
d="M 30324001.000000,46315999.000000
30324001.000000,44616001.000000
32023999.000000,44616001.000000
32023999.000000,46315999.000000
Z" /> 
<circle cx="31174000.000000" cy="42926000.000000" r="850000.000000" /> 
<circle cx="31174000.000000" cy="40386000.000000" r="850000.000000" /> 
</g>
<g >
</g>
<g style="fill:#000000; fill-opacity:1.0; 
stroke:#000000; stroke-width:1.000000; stroke-opacity:1; 
stroke-linecap:round; stroke-linejoin:round;">
<path style="fill:#000000; fill-opacity:1.0; 
stroke:#000000; stroke-width:1.000000; stroke-opacity:1; 
stroke-linecap:round; stroke-linejoin:round;fill-rule:evenodd;"
d="M 31211199.000000,50204001.000000
31211199.000000,51903999.000000
29511201.000000,51903999.000000
29511201.000000,50204001.000000
Z" /> 
</g>
<g >
</g>
<g style="fill:#000000; fill-opacity:1.0; 
stroke:#000000; stroke-width:1.000000; stroke-opacity:1; 
stroke-linecap:round; stroke-linejoin:round;">
</g>
<g style="fill:#000000; fill-opacity:1.0; 
stroke:#000000; stroke-width:950000.000000; stroke-opacity:1; 
stroke-linecap:round; stroke-linejoin:round;">
</g>
<g style="fill:#000000; fill-opacity:0.0; 
stroke:#000000; stroke-width:950000.000000; stroke-opacity:1; 
stroke-linecap:round; stroke-linejoin:round;">
<path d="M36542316 44720085
L35492316 44720085
" />
</g>
<g style="fill:#000000; fill-opacity:0.0; 
stroke:#000000; stroke-width:1.000000; stroke-opacity:1; 
stroke-linecap:round; stroke-linejoin:round;">
</g>
<g style="fill:#000000; fill-opacity:1.0; 
stroke:#000000; stroke-width:1.000000; stroke-opacity:1; 
stroke-linecap:round; stroke-linejoin:round;">
<path style="fill:#000000; fill-opacity:1.0; 
stroke:#000000; stroke-width:1.000000; stroke-opacity:1; 
stroke-linecap:round; stroke-linejoin:round;fill-rule:evenodd;"
d="M 38517315.000000,44270086.000000
38517315.000000,45170084.000000
37217317.000000,45170084.000000
37217317.000000,44270086.000000
Z" /> 
</g>
<g >
</g>
<g style="fill:#000000; fill-opacity:1.0; 
stroke:#000000; stroke-width:1.000000; stroke-opacity:1; 
stroke-linecap:round; stroke-linejoin:round;">
<circle cx="30793000.000000" cy="29972000.000000" r="650000.000000" /> 
</g>
<g style="fill:#000000; fill-opacity:1.0; 
stroke:#000000; stroke-width:21200.000000; stroke-opacity:1; 
stroke-linecap:round; stroke-linejoin:round;">
</g>
<g style="fill:#000000; fill-opacity:1.0; 
stroke:#000000; stroke-width:1.000000; stroke-opacity:1; 
stroke-linecap:round; stroke-linejoin:round;">
<circle cx="17788200.000000" cy="30073600.000000" r="650000.000000" /> 
</g>
<g style="fill:#000000; fill-opacity:1.0; 
stroke:#000000; stroke-width:21200.000000; stroke-opacity:1; 
stroke-linecap:round; stroke-linejoin:round;">
</g>
<g style="fill:#000000; fill-opacity:1.0; 
stroke:#000000; stroke-width:1.000000; stroke-opacity:1; 
stroke-linecap:round; stroke-linejoin:round;">
<circle cx="16467400.000000" cy="38404800.000000" r="550000.000000" /> 
</g>
<g style="fill:#000000; fill-opacity:1.0; 
stroke:#000000; stroke-width:21200.000000; stroke-opacity:1; 
stroke-linecap:round; stroke-linejoin:round;">
</g>
<g style="fill:#000000; fill-opacity:1.0; 
stroke:#000000; stroke-width:1.000000; stroke-opacity:1; 
stroke-linecap:round; stroke-linejoin:round;">
<circle cx="26551200.000000" cy="51104800.000000" r="425000.000000" /> 
</g>
<g style="fill:#000000; fill-opacity:1.0; 
stroke:#000000; stroke-width:21200.000000; stroke-opacity:1; 
stroke-linecap:round; stroke-linejoin:round;">
</g>
<g style="fill:#000000; fill-opacity:1.0; 
stroke:#000000; stroke-width:1.000000; stroke-opacity:1; 
stroke-linecap:round; stroke-linejoin:round;">
<circle cx="17686600.000000" cy="47599600.000000" r="650000.000000" /> 
</g>
<g style="fill:#000000; fill-opacity:1.0; 
stroke:#000000; stroke-width:21200.000000; stroke-opacity:1; 
stroke-linecap:round; stroke-linejoin:round;">
</g>
<g style="fill:#000000; fill-opacity:1.0; 
stroke:#000000; stroke-width:1.000000; stroke-opacity:1; 
stroke-linecap:round; stroke-linejoin:round;">
<circle cx="32215400.000000" cy="38658800.000000" r="550000.000000" /> 
</g>
<g style="fill:#000000; fill-opacity:1.0; 
stroke:#000000; stroke-width:21200.000000; stroke-opacity:1; 
stroke-linecap:round; stroke-linejoin:round;">
</g>
<g style="fill:#000000; fill-opacity:1.0; 
stroke:#000000; stroke-width:1.000000; stroke-opacity:1; 
stroke-linecap:round; stroke-linejoin:round;">
<circle cx="31453400.000000" cy="47599600.000000" r="650000.000000" /> 
</g>
<g style="fill:#000000; fill-opacity:1.0; 
stroke:#000000; stroke-width:21200.000000; stroke-opacity:1; 
stroke-linecap:round; stroke-linejoin:round;">
</g>
<g style="fill:#000000; fill-opacity:1.0; 
stroke:#000000; stroke-width:1.000000; stroke-opacity:1; 
stroke-linecap:round; stroke-linejoin:round;">
<path style="fill:#000000; fill-opacity:1.0; 
stroke:#000000; stroke-width:1.000000; stroke-opacity:1; 
stroke-linecap:round; stroke-linejoin:round;fill-rule:evenodd;"
d="M 33690500.000000,34388000.000000
33685666.000000,34412300.000000
33671901.000000,34432901.000000
33651300.000000,34446666.000000
33627000.000000,34451500.000000
33301000.000000,34451500.000000
33276700.000000,34446666.000000
33256099.000000,34432901.000000
33242334.000000,34412300.000000
33237500.000000,34388000.000000
33237500.000000,32868000.000000
33242334.000000,32843700.000000
33256099.000000,32823099.000000
33276700.000000,32809334.000000
33301000.000000,32804500.000000
33627000.000000,32804500.000000
33651300.000000,32809334.000000
33671901.000000,32823099.000000
33685666.000000,32843700.000000
33690500.000000,32868000.000000
Z" /> 
<path style="fill:#000000; fill-opacity:1.0; 
stroke:#000000; stroke-width:1.000000; stroke-opacity:1; 
stroke-linecap:round; stroke-linejoin:round;fill-rule:evenodd;"
d="M 32984500.000000,34388000.000000
32979666.000000,34412300.000000
32965901.000000,34432901.000000
32945300.000000,34446666.000000
32921000.000000,34451500.000000
32595000.000000,34451500.000000
32570700.000000,34446666.000000
32550099.000000,34432901.000000
32536334.000000,34412300.000000
32531500.000000,34388000.000000
32531500.000000,32868000.000000
32536334.000000,32843700.000000
32550099.000000,32823099.000000
32570700.000000,32809334.000000
32595000.000000,32804500.000000
32921000.000000,32804500.000000
32945300.000000,32809334.000000
32965901.000000,32823099.000000
32979666.000000,32843700.000000
32984500.000000,32868000.000000
Z" /> 
<path style="fill:#000000; fill-opacity:1.0; 
stroke:#000000; stroke-width:1.000000; stroke-opacity:1; 
stroke-linecap:round; stroke-linejoin:round;fill-rule:evenodd;"
d="M 32278500.000000,34388000.000000
32273666.000000,34412300.000000
32259901.000000,34432901.000000
32239300.000000,34446666.000000
32215000.000000,34451500.000000
31889000.000000,34451500.000000
31864700.000000,34446666.000000
31844099.000000,34432901.000000
31830334.000000,34412300.000000
31825500.000000,34388000.000000
31825500.000000,32868000.000000
31830334.000000,32843700.000000
31844099.000000,32823099.000000
31864700.000000,32809334.000000
31889000.000000,32804500.000000
32215000.000000,32804500.000000
32239300.000000,32809334.000000
32259901.000000,32823099.000000
32273666.000000,32843700.000000
32278500.000000,32868000.000000
Z" /> 
<path style="fill:#000000; fill-opacity:1.0; 
stroke:#000000; stroke-width:1.000000; stroke-opacity:1; 
stroke-linecap:round; stroke-linejoin:round;fill-rule:evenodd;"
d="M 31572500.000000,34388000.000000
31567666.000000,34412300.000000
31553901.000000,34432901.000000
31533300.000000,34446666.000000
31509000.000000,34451500.000000
31183000.000000,34451500.000000
31158700.000000,34446666.000000
31138099.000000,34432901.000000
31124334.000000,34412300.000000
31119500.000000,34388000.000000
31119500.000000,32868000.000000
31124334.000000,32843700.000000
31138099.000000,32823099.000000
31158700.000000,32809334.000000
31183000.000000,32804500.000000
31509000.000000,32804500.000000
31533300.000000,32809334.000000
31553901.000000,32823099.000000
31567666.000000,32843700.000000
31572500.000000,32868000.000000
Z" /> 
<path style="fill:#000000; fill-opacity:1.0; 
stroke:#000000; stroke-width:1.000000; stroke-opacity:1; 
stroke-linecap:round; stroke-linejoin:round;fill-rule:evenodd;"
d="M 30866500.000000,34388000.000000
30861666.000000,34412300.000000
30847901.000000,34432901.000000
30827300.000000,34446666.000000
30803000.000000,34451500.000000
30477000.000000,34451500.000000
30452700.000000,34446666.000000
30432099.000000,34432901.000000
30418334.000000,34412300.000000
30413500.000000,34388000.000000
30413500.000000,32868000.000000
30418334.000000,32843700.000000
30432099.000000,32823099.000000
30452700.000000,32809334.000000
30477000.000000,32804500.000000
30803000.000000,32804500.000000
30827300.000000,32809334.000000
30847901.000000,32823099.000000
30861666.000000,32843700.000000
30866500.000000,32868000.000000
Z" /> 
<path style="fill:#000000; fill-opacity:1.0; 
stroke:#000000; stroke-width:1.000000; stroke-opacity:1; 
stroke-linecap:round; stroke-linejoin:round;fill-rule:evenodd;"
d="M 30160500.000000,34388000.000000
30155666.000000,34412300.000000
30141901.000000,34432901.000000
30121300.000000,34446666.000000
30097000.000000,34451500.000000
29771000.000000,34451500.000000
29746700.000000,34446666.000000
29726099.000000,34432901.000000
29712334.000000,34412300.000000
29707500.000000,34388000.000000
29707500.000000,32868000.000000
29712334.000000,32843700.000000
29726099.000000,32823099.000000
29746700.000000,32809334.000000
29771000.000000,32804500.000000
30097000.000000,32804500.000000
30121300.000000,32809334.000000
30141901.000000,32823099.000000
30155666.000000,32843700.000000
30160500.000000,32868000.000000
Z" /> 
<path style="fill:#000000; fill-opacity:1.0; 
stroke:#000000; stroke-width:1.000000; stroke-opacity:1; 
stroke-linecap:round; stroke-linejoin:round;fill-rule:evenodd;"
d="M 29454500.000000,34388000.000000
29449666.000000,34412300.000000
29435901.000000,34432901.000000
29415300.000000,34446666.000000
29391000.000000,34451500.000000
29065000.000000,34451500.000000
29040700.000000,34446666.000000
29020099.000000,34432901.000000
29006334.000000,34412300.000000
29001500.000000,34388000.000000
29001500.000000,32868000.000000
29006334.000000,32843700.000000
29020099.000000,32823099.000000
29040700.000000,32809334.000000
29065000.000000,32804500.000000
29391000.000000,32804500.000000
29415300.000000,32809334.000000
29435901.000000,32823099.000000
29449666.000000,32843700.000000
29454500.000000,32868000.000000
Z" /> 
<path style="fill:#000000; fill-opacity:1.0; 
stroke:#000000; stroke-width:1.000000; stroke-opacity:1; 
stroke-linecap:round; stroke-linejoin:round;fill-rule:evenodd;"
d="M 28748500.000000,34388000.000000
28743666.000000,34412300.000000
28729901.000000,34432901.000000
28709300.000000,34446666.000000
28685000.000000,34451500.000000
28359000.000000,34451500.000000
28334700.000000,34446666.000000
28314099.000000,34432901.000000
28300334.000000,34412300.000000
28295500.000000,34388000.000000
28295500.000000,32868000.000000
28300334.000000,32843700.000000
28314099.000000,32823099.000000
28334700.000000,32809334.000000
28359000.000000,32804500.000000
28685000.000000,32804500.000000
28709300.000000,32809334.000000
28729901.000000,32823099.000000
28743666.000000,32843700.000000
28748500.000000,32868000.000000
Z" /> 
<path style="fill:#000000; fill-opacity:1.0; 
stroke:#000000; stroke-width:1.000000; stroke-opacity:1; 
stroke-linecap:round; stroke-linejoin:round;fill-rule:evenodd;"
d="M 28042500.000000,34388000.000000
28037666.000000,34412300.000000
28023901.000000,34432901.000000
28003300.000000,34446666.000000
27979000.000000,34451500.000000
27653000.000000,34451500.000000
27628700.000000,34446666.000000
27608099.000000,34432901.000000
27594334.000000,34412300.000000
27589500.000000,34388000.000000
27589500.000000,32868000.000000
27594334.000000,32843700.000000
27608099.000000,32823099.000000
27628700.000000,32809334.000000
27653000.000000,32804500.000000
27979000.000000,32804500.000000
28003300.000000,32809334.000000
28023901.000000,32823099.000000
28037666.000000,32843700.000000
28042500.000000,32868000.000000
Z" /> 
<path style="fill:#000000; fill-opacity:1.0; 
stroke:#000000; stroke-width:1.000000; stroke-opacity:1; 
stroke-linecap:round; stroke-linejoin:round;fill-rule:evenodd;"
d="M 27336500.000000,34388000.000000
27331666.000000,34412300.000000
27317901.000000,34432901.000000
27297300.000000,34446666.000000
27273000.000000,34451500.000000
26947000.000000,34451500.000000
26922700.000000,34446666.000000
26902099.000000,34432901.000000
26888334.000000,34412300.000000
26883500.000000,34388000.000000
26883500.000000,32868000.000000
26888334.000000,32843700.000000
26902099.000000,32823099.000000
26922700.000000,32809334.000000
26947000.000000,32804500.000000
27273000.000000,32804500.000000
27297300.000000,32809334.000000
27317901.000000,32823099.000000
27331666.000000,32843700.000000
27336500.000000,32868000.000000
Z" /> 
<path style="fill:#000000; fill-opacity:1.0; 
stroke:#000000; stroke-width:1.000000; stroke-opacity:1; 
stroke-linecap:round; stroke-linejoin:round;fill-rule:evenodd;"
d="M 26630500.000000,34388000.000000
26625666.000000,34412300.000000
26611901.000000,34432901.000000
26591300.000000,34446666.000000
26567000.000000,34451500.000000
26241000.000000,34451500.000000
26216700.000000,34446666.000000
26196099.000000,34432901.000000
26182334.000000,34412300.000000
26177500.000000,34388000.000000
26177500.000000,32868000.000000
26182334.000000,32843700.000000
26196099.000000,32823099.000000
26216700.000000,32809334.000000
26241000.000000,32804500.000000
26567000.000000,32804500.000000
26591300.000000,32809334.000000
26611901.000000,32823099.000000
26625666.000000,32843700.000000
26630500.000000,32868000.000000
Z" /> 
<path style="fill:#000000; fill-opacity:1.0; 
stroke:#000000; stroke-width:1.000000; stroke-opacity:1; 
stroke-linecap:round; stroke-linejoin:round;fill-rule:evenodd;"
d="M 25924500.000000,34388000.000000
25919666.000000,34412300.000000
25905901.000000,34432901.000000
25885300.000000,34446666.000000
25861000.000000,34451500.000000
25535000.000000,34451500.000000
25510700.000000,34446666.000000
25490099.000000,34432901.000000
25476334.000000,34412300.000000
25471500.000000,34388000.000000
25471500.000000,32868000.000000
25476334.000000,32843700.000000
25490099.000000,32823099.000000
25510700.000000,32809334.000000
25535000.000000,32804500.000000
25861000.000000,32804500.000000
25885300.000000,32809334.000000
25905901.000000,32823099.000000
25919666.000000,32843700.000000
25924500.000000,32868000.000000
Z" /> 
<path style="fill:#000000; fill-opacity:1.0; 
stroke:#000000; stroke-width:1.000000; stroke-opacity:1; 
stroke-linecap:round; stroke-linejoin:round;fill-rule:evenodd;"
d="M 25218500.000000,34388000.000000
25213666.000000,34412300.000000
25199901.000000,34432901.000000
25179300.000000,34446666.000000
25155000.000000,34451500.000000
24829000.000000,34451500.000000
24804700.000000,34446666.000000
24784099.000000,34432901.000000
24770334.000000,34412300.000000
24765500.000000,34388000.000000
24765500.000000,32868000.000000
24770334.000000,32843700.000000
24784099.000000,32823099.000000
24804700.000000,32809334.000000
24829000.000000,32804500.000000
25155000.000000,32804500.000000
25179300.000000,32809334.000000
25199901.000000,32823099.000000
25213666.000000,32843700.000000
25218500.000000,32868000.000000
Z" /> 
<path style="fill:#000000; fill-opacity:1.0; 
stroke:#000000; stroke-width:1.000000; stroke-opacity:1; 
stroke-linecap:round; stroke-linejoin:round;fill-rule:evenodd;"
d="M 24512500.000000,34388000.000000
24507666.000000,34412300.000000
24493901.000000,34432901.000000
24473300.000000,34446666.000000
24449000.000000,34451500.000000
24123000.000000,34451500.000000
24098700.000000,34446666.000000
24078099.000000,34432901.000000
24064334.000000,34412300.000000
24059500.000000,34388000.000000
24059500.000000,32868000.000000
24064334.000000,32843700.000000
24078099.000000,32823099.000000
24098700.000000,32809334.000000
24123000.000000,32804500.000000
24449000.000000,32804500.000000
24473300.000000,32809334.000000
24493901.000000,32823099.000000
24507666.000000,32843700.000000
24512500.000000,32868000.000000
Z" /> 
<path style="fill:#000000; fill-opacity:1.0; 
stroke:#000000; stroke-width:1.000000; stroke-opacity:1; 
stroke-linecap:round; stroke-linejoin:round;fill-rule:evenodd;"
d="M 23806500.000000,34388000.000000
23801666.000000,34412300.000000
23787901.000000,34432901.000000
23767300.000000,34446666.000000
23743000.000000,34451500.000000
23417000.000000,34451500.000000
23392700.000000,34446666.000000
23372099.000000,34432901.000000
23358334.000000,34412300.000000
23353500.000000,34388000.000000
23353500.000000,32868000.000000
23358334.000000,32843700.000000
23372099.000000,32823099.000000
23392700.000000,32809334.000000
23417000.000000,32804500.000000
23743000.000000,32804500.000000
23767300.000000,32809334.000000
23787901.000000,32823099.000000
23801666.000000,32843700.000000
23806500.000000,32868000.000000
Z" /> 
<path style="fill:#000000; fill-opacity:1.0; 
stroke:#000000; stroke-width:1.000000; stroke-opacity:1; 
stroke-linecap:round; stroke-linejoin:round;fill-rule:evenodd;"
d="M 23100500.000000,34388000.000000
23095666.000000,34412300.000000
23081901.000000,34432901.000000
23061300.000000,34446666.000000
23037000.000000,34451500.000000
22711000.000000,34451500.000000
22686700.000000,34446666.000000
22666099.000000,34432901.000000
22652334.000000,34412300.000000
22647500.000000,34388000.000000
22647500.000000,32868000.000000
22652334.000000,32843700.000000
22666099.000000,32823099.000000
22686700.000000,32809334.000000
22711000.000000,32804500.000000
23037000.000000,32804500.000000
23061300.000000,32809334.000000
23081901.000000,32823099.000000
23095666.000000,32843700.000000
23100500.000000,32868000.000000
Z" /> 
<path style="fill:#000000; fill-opacity:1.0; 
stroke:#000000; stroke-width:1.000000; stroke-opacity:1; 
stroke-linecap:round; stroke-linejoin:round;fill-rule:evenodd;"
d="M 22394500.000000,34388000.000000
22389666.000000,34412300.000000
22375901.000000,34432901.000000
22355300.000000,34446666.000000
22331000.000000,34451500.000000
22005000.000000,34451500.000000
21980700.000000,34446666.000000
21960099.000000,34432901.000000
21946334.000000,34412300.000000
21941500.000000,34388000.000000
21941500.000000,32868000.000000
21946334.000000,32843700.000000
21960099.000000,32823099.000000
21980700.000000,32809334.000000
22005000.000000,32804500.000000
22331000.000000,32804500.000000
22355300.000000,32809334.000000
22375901.000000,32823099.000000
22389666.000000,32843700.000000
22394500.000000,32868000.000000
Z" /> 
<path style="fill:#000000; fill-opacity:1.0; 
stroke:#000000; stroke-width:1.000000; stroke-opacity:1; 
stroke-linecap:round; stroke-linejoin:round;fill-rule:evenodd;"
d="M 21688500.000000,34388000.000000
21683666.000000,34412300.000000
21669901.000000,34432901.000000
21649300.000000,34446666.000000
21625000.000000,34451500.000000
21299000.000000,34451500.000000
21274700.000000,34446666.000000
21254099.000000,34432901.000000
21240334.000000,34412300.000000
21235500.000000,34388000.000000
21235500.000000,32868000.000000
21240334.000000,32843700.000000
21254099.000000,32823099.000000
21274700.000000,32809334.000000
21299000.000000,32804500.000000
21625000.000000,32804500.000000
21649300.000000,32809334.000000
21669901.000000,32823099.000000
21683666.000000,32843700.000000
21688500.000000,32868000.000000
Z" /> 
<path style="fill:#000000; fill-opacity:1.0; 
stroke:#000000; stroke-width:1.000000; stroke-opacity:1; 
stroke-linecap:round; stroke-linejoin:round;fill-rule:evenodd;"
d="M 20982500.000000,34388000.000000
20977666.000000,34412300.000000
20963901.000000,34432901.000000
20943300.000000,34446666.000000
20919000.000000,34451500.000000
20593000.000000,34451500.000000
20568700.000000,34446666.000000
20548099.000000,34432901.000000
20534334.000000,34412300.000000
20529500.000000,34388000.000000
20529500.000000,32868000.000000
20534334.000000,32843700.000000
20548099.000000,32823099.000000
20568700.000000,32809334.000000
20593000.000000,32804500.000000
20919000.000000,32804500.000000
20943300.000000,32809334.000000
20963901.000000,32823099.000000
20977666.000000,32843700.000000
20982500.000000,32868000.000000
Z" /> 
<path style="fill:#000000; fill-opacity:1.0; 
stroke:#000000; stroke-width:1.000000; stroke-opacity:1; 
stroke-linecap:round; stroke-linejoin:round;fill-rule:evenodd;"
d="M 20276500.000000,34388000.000000
20271666.000000,34412300.000000
20257901.000000,34432901.000000
20237300.000000,34446666.000000
20213000.000000,34451500.000000
19887000.000000,34451500.000000
19862700.000000,34446666.000000
19842099.000000,34432901.000000
19828334.000000,34412300.000000
19823500.000000,34388000.000000
19823500.000000,32868000.000000
19828334.000000,32843700.000000
19842099.000000,32823099.000000
19862700.000000,32809334.000000
19887000.000000,32804500.000000
20213000.000000,32804500.000000
20237300.000000,32809334.000000
20257901.000000,32823099.000000
20271666.000000,32843700.000000
20276500.000000,32868000.000000
Z" /> 
<path style="fill:#000000; fill-opacity:1.0; 
stroke:#000000; stroke-width:1.000000; stroke-opacity:1; 
stroke-linecap:round; stroke-linejoin:round;fill-rule:evenodd;"
d="M 19570500.000000,34388000.000000
19565666.000000,34412300.000000
19551901.000000,34432901.000000
19531300.000000,34446666.000000
19507000.000000,34451500.000000
19181000.000000,34451500.000000
19156700.000000,34446666.000000
19136099.000000,34432901.000000
19122334.000000,34412300.000000
19117500.000000,34388000.000000
19117500.000000,32868000.000000
19122334.000000,32843700.000000
19136099.000000,32823099.000000
19156700.000000,32809334.000000
19181000.000000,32804500.000000
19507000.000000,32804500.000000
19531300.000000,32809334.000000
19551901.000000,32823099.000000
19565666.000000,32843700.000000
19570500.000000,32868000.000000
Z" /> 
<path style="fill:#000000; fill-opacity:1.0; 
stroke:#000000; stroke-width:1.000000; stroke-opacity:1; 
stroke-linecap:round; stroke-linejoin:round;fill-rule:evenodd;"
d="M 18864500.000000,34388000.000000
18859666.000000,34412300.000000
18845901.000000,34432901.000000
18825300.000000,34446666.000000
18801000.000000,34451500.000000
18475000.000000,34451500.000000
18450700.000000,34446666.000000
18430099.000000,34432901.000000
18416334.000000,34412300.000000
18411500.000000,34388000.000000
18411500.000000,32868000.000000
18416334.000000,32843700.000000
18430099.000000,32823099.000000
18450700.000000,32809334.000000
18475000.000000,32804500.000000
18801000.000000,32804500.000000
18825300.000000,32809334.000000
18845901.000000,32823099.000000
18859666.000000,32843700.000000
18864500.000000,32868000.000000
Z" /> 
<path style="fill:#000000; fill-opacity:1.0; 
stroke:#000000; stroke-width:1.000000; stroke-opacity:1; 
stroke-linecap:round; stroke-linejoin:round;fill-rule:evenodd;"
d="M 18158500.000000,34388000.000000
18153666.000000,34412300.000000
18139901.000000,34432901.000000
18119300.000000,34446666.000000
18095000.000000,34451500.000000
17769000.000000,34451500.000000
17744700.000000,34446666.000000
17724099.000000,34432901.000000
17710334.000000,34412300.000000
17705500.000000,34388000.000000
17705500.000000,32868000.000000
17710334.000000,32843700.000000
17724099.000000,32823099.000000
17744700.000000,32809334.000000
17769000.000000,32804500.000000
18095000.000000,32804500.000000
18119300.000000,32809334.000000
18139901.000000,32823099.000000
18153666.000000,32843700.000000
18158500.000000,32868000.000000
Z" /> 
<path style="fill:#000000; fill-opacity:1.0; 
stroke:#000000; stroke-width:1.000000; stroke-opacity:1; 
stroke-linecap:round; stroke-linejoin:round;fill-rule:evenodd;"
d="M 17452500.000000,34388000.000000
17447666.000000,34412300.000000
17433901.000000,34432901.000000
17413300.000000,34446666.000000
17389000.000000,34451500.000000
17063000.000000,34451500.000000
17038700.000000,34446666.000000
17018099.000000,34432901.000000
17004334.000000,34412300.000000
16999500.000000,34388000.000000
16999500.000000,32868000.000000
17004334.000000,32843700.000000
17018099.000000,32823099.000000
17038700.000000,32809334.000000
17063000.000000,32804500.000000
17389000.000000,32804500.000000
17413300.000000,32809334.000000
17433901.000000,32823099.000000
17447666.000000,32843700.000000
17452500.000000,32868000.000000
Z" /> 
<path style="fill:#000000; fill-opacity:1.0; 
stroke:#000000; stroke-width:1.000000; stroke-opacity:1; 
stroke-linecap:round; stroke-linejoin:round;fill-rule:evenodd;"
d="M 16746500.000000,34388000.000000
16741666.000000,34412300.000000
16727901.000000,34432901.000000
16707300.000000,34446666.000000
16683000.000000,34451500.000000
16357000.000000,34451500.000000
16332700.000000,34446666.000000
16312099.000000,34432901.000000
16298334.000000,34412300.000000
16293500.000000,34388000.000000
16293500.000000,32868000.000000
16298334.000000,32843700.000000
16312099.000000,32823099.000000
16332700.000000,32809334.000000
16357000.000000,32804500.000000
16683000.000000,32804500.000000
16707300.000000,32809334.000000
16727901.000000,32823099.000000
16741666.000000,32843700.000000
16746500.000000,32868000.000000
Z" /> 
<path style="fill:#000000; fill-opacity:1.0; 
stroke:#000000; stroke-width:1.000000; stroke-opacity:1; 
stroke-linecap:round; stroke-linejoin:round;fill-rule:evenodd;"
d="M 16040500.000000,34388000.000000
16035666.000000,34412300.000000
16021901.000000,34432901.000000
16001300.000000,34446666.000000
15977000.000000,34451500.000000
15651000.000000,34451500.000000
15626700.000000,34446666.000000
15606099.000000,34432901.000000
15592334.000000,34412300.000000
15587500.000000,34388000.000000
15587500.000000,32868000.000000
15592334.000000,32843700.000000
15606099.000000,32823099.000000
15626700.000000,32809334.000000
15651000.000000,32804500.000000
15977000.000000,32804500.000000
16001300.000000,32809334.000000
16021901.000000,32823099.000000
16035666.000000,32843700.000000
16040500.000000,32868000.000000
Z" /> 
<path style="fill:#000000; fill-opacity:1.0; 
stroke:#000000; stroke-width:1.000000; stroke-opacity:1; 
stroke-linecap:round; stroke-linejoin:round;fill-rule:evenodd;"
d="M 15334500.000000,34388000.000000
15329666.000000,34412300.000000
15315901.000000,34432901.000000
15295300.000000,34446666.000000
15271000.000000,34451500.000000
14945000.000000,34451500.000000
14920700.000000,34446666.000000
14900099.000000,34432901.000000
14886334.000000,34412300.000000
14881500.000000,34388000.000000
14881500.000000,32868000.000000
14886334.000000,32843700.000000
14900099.000000,32823099.000000
14920700.000000,32809334.000000
14945000.000000,32804500.000000
15271000.000000,32804500.000000
15295300.000000,32809334.000000
15315901.000000,32823099.000000
15329666.000000,32843700.000000
15334500.000000,32868000.000000
Z" /> 
</g>
<g >
</g>
<g style="fill:#000000; fill-opacity:1.0; 
stroke:#000000; stroke-width:1.000000; stroke-opacity:1; 
stroke-linecap:round; stroke-linejoin:round;">
</g>
<g style="fill:#000000; fill-opacity:1.0; 
stroke:#000000; stroke-width:950000.000000; stroke-opacity:1; 
stroke-linecap:round; stroke-linejoin:round;">
</g>
<g style="fill:#000000; fill-opacity:0.0; 
stroke:#000000; stroke-width:950000.000000; stroke-opacity:1; 
stroke-linecap:round; stroke-linejoin:round;">
<path d="M12092316 44820085
L13142316 44820085
" />
</g>
<g style="fill:#000000; fill-opacity:0.0; 
stroke:#000000; stroke-width:1.000000; stroke-opacity:1; 
stroke-linecap:round; stroke-linejoin:round;">
</g>
<g style="fill:#000000; fill-opacity:1.0; 
stroke:#000000; stroke-width:1.000000; stroke-opacity:1; 
stroke-linecap:round; stroke-linejoin:round;">
<path style="fill:#000000; fill-opacity:1.0; 
stroke:#000000; stroke-width:1.000000; stroke-opacity:1; 
stroke-linecap:round; stroke-linejoin:round;fill-rule:evenodd;"
d="M 10117317.000000,45270084.000000
10117317.000000,44370086.000000
11417315.000000,44370086.000000
11417315.000000,45270084.000000
Z" /> 
</g>
<g >
</g>
<g >
</g>
<g >
</g>
</g>
<g style="fill:#000000; fill-opacity:1.0; 
stroke:#000000; stroke-width:1.000000; stroke-opacity:1; 
stroke-linecap:round; stroke-linejoin:round;">
</g>
<g style="fill:#D0D2CD; fill-opacity:1.0; 
stroke:#D0D2CD; stroke-width:1.000000; stroke-opacity:1; 
stroke-linecap:round; stroke-linejoin:round;">
</g>
<g style="fill:#D0D2CD; fill-opacity:1.0; 
stroke:#D0D2CD; stroke-width:50000.000000; stroke-opacity:1; 
stroke-linecap:round; stroke-linejoin:round;">
</g>
<g style="fill:#D0D2CD; fill-opacity:0.0; 
stroke:#D0D2CD; stroke-width:50000.000000; stroke-opacity:1; 
stroke-linecap:round; stroke-linejoin:round;">
<path d="M4504000 4318000
L71179000 4318000
" />
<path d="M71179000 4318000
L71179000 55118000
" />
<path d="M71179000 55118000
L4504000 55118000
" />
<path d="M4504000 55118000
L4504000 4318000
" />
<g >
</g>
<g >
</g>
<g >
</g>
<g >
</g>
<g >
</g>
<g >
</g>
<g >
</g>
<g >
</g>
<g >
</g>
<g >
</g>
<g >
</g>
<g >
</g>
<g >
</g>
<g >
</g>
<g >
</g>
<g >
</g>
<g >
</g>
<g >
</g>
<g >
</g>
<g >
</g>
<g >
</g>
<g >
</g>
<g >
</g>
<g >
</g>
</g> 
</svg>
